<svg width="3112" height="3112" viewBox="0 0 3112 3112" fill="none" xmlns="http://www.w3.org/2000/svg">
<rect width="3112" height="3112" fill="black"/>
<path d="M1952 164V479.5H2147.5V1181.5H2459.5V1597.5H2426V1610H2447V1937H2138.5V1958.5H2688.5V2126.5H2701V2087H2872V2395H2704V2356.5H2688.5V2441.5H2141.5V2463H2181V2633.5H1643V2948.5H1267.5V2643.5H1243V2683H1114.5V2649.5H803V2396H360V1787.5H509.5V1690H256V1561.5H393.5V1601H454.5V1561.5H870V1537H800V971.5H1056V843.5H1007.5V626H1182V565H1655.5V265.5H1768V237.5L1820 165L1952 164Z" fill="#7F7F7F" stroke="white" stroke-width="4"/>
<path d="M1001.5 2264.5H1114.5V2539H907V2393H1050V2277H1001.5V2264.5Z" fill="black" stroke="white" stroke-width="4"/>
<path d="M1148 1760H1444.5V1949.5H1527V2071.5H1426.5V2224.5H1513L1551.5 2261V2302.5L1516 2340.5H1344V2462.5H1383.5V2472H1264.5V2533.5H1237V2160.5H1069V1995.5H1007.5V1974H1197V1803H1148V1760Z" fill="black" stroke="white" stroke-width="4"/>
<path d="M1640.5 2264.5H1689V2279H1912V2237H1930.5V2325.5H2037.5V2444.5H2055.5V2463H1955V2530.5H1872.5V2469.5H1640.5V2264.5Z" fill="black" stroke="white" stroke-width="4"/>
<path d="M1774.5 1528H1784V1604.5H2010V1546.5H2129.5V1601H2340V1610.5H2321.5V1793.5H2199.5V1729.5H1970V1943H2050V1962H1992V2053.5H1930.5V2166.5H1909.5V2026H1761L1689.5 2095V2139H1680V1946.5H1774.5V1528Z" fill="black" stroke="white" stroke-width="4"/>
<path d="M1160.5 843.5V1005H1499.5V1320.5L1541.5 1359.5H1774.5V1460.5H1784V1375H1942.5V1457.5H2019V895.5H1726V922.5H1493.5V843.5H1160.5Z" fill="black" stroke="white" stroke-width="4"/>
<path d="M1017 1155V1537H950V1555H980V1744.5H870V1687H613.5V1788H812V1848.5H839.5V1806H1087V1766.5H1048V1595H1212.5V1656H1313V1155H1017Z" fill="black" stroke="white" stroke-width="4"/>
<path d="M818.5 1934.5H839.5V1976.5H940V1995H879.5V2139.5L925 2197.5V2267H956V2276H906.5V2291.5H631.5V2273.5H778V1998.5H818.5V1934.5Z" fill="black" stroke="white" stroke-width="4"/>
<path d="M2688.5 2176V2311.5H2703.5V2176H2688.5Z" fill="#7F7F7F" stroke="white" stroke-width="4"/>
<rect x="363" y="2015" width="414" height="260" fill="#A4A189"/>
<path d="M926 2203.5H955V2224.5H926M1021 2224.5V2264.5" stroke="white" stroke-width="4"/>
<path d="M1506.5 1549H1396.5V1760" stroke="white" stroke-width="4"/>
<path d="M1501 1157H1390.5L1393 1446.5H1504.5" stroke="white" stroke-width="4"/>
<path d="M1775 1775.5H1742V1815.5H1775" stroke="white" stroke-width="4"/>
<path d="M1931.5 2114.5H2032.5V2261H1974.5" stroke="white" stroke-width="4"/>
<path d="M1931.5 2105H1993V2115" stroke="white" stroke-width="4"/>
<path d="M2261 2132.5H2226.5C2224.83 2133 2221.5 2135.6 2221.5 2142V2243.5C2226.83 2253.83 2239.3 2274.3 2244.5 2273.5C2249.7 2272.7 2261 2255.83 2266 2247.5V2142C2266 2135.6 2262.67 2133 2261 2132.5Z" stroke="white" stroke-width="4"/>
<rect x="2337" y="2051" width="350" height="388" fill="#A5A388"/>
<circle cx="2017" cy="519" r="35" stroke="white" stroke-width="4"/>
<circle cx="1815" cy="732" r="33" stroke="white" stroke-width="4"/>
<path d="M1259 565.5V626.5H1183" stroke="white" stroke-width="4"/>
<path d="M2460 1351H2381V1434.5H2460" stroke="white" stroke-width="4"/>
<rect x="2439" y="2401" width="37" height="38" fill="#7F7F7F" stroke="white" stroke-width="4"/>
<rect x="2498" y="2207" width="37" height="38" fill="#7F7F7F" stroke="white" stroke-width="4"/>
<rect x="2488" y="2169" width="37" height="38" fill="#7F7F7F" stroke="white" stroke-width="4"/>
<rect x="2338" y="2052" width="41" height="37" fill="#7F7F7F" stroke="white" stroke-width="4"/>
<line x1="1446" y1="1774" x2="1571" y2="1774" stroke="white" stroke-width="8"/>
<line x1="1655" y1="1774" x2="1777" y2="1774" stroke="white" stroke-width="8"/>
<rect x="1675" y="1728" width="41" height="39" stroke="white" stroke-width="4"/>
<rect x="1586" y="1360" width="40" height="41" stroke="white" stroke-width="4"/>
<circle cx="1611" cy="1514" r="17" stroke="white" stroke-width="4"/>
<rect x="1459" y="1115" width="40" height="39" stroke="white" stroke-width="4"/>
<rect x="1269" y="1112" width="40" height="39" stroke="white" stroke-width="4"/>
<rect x="1354" y="1717" width="34" height="40" stroke="white" stroke-width="4"/>
<rect x="1048" y="971" width="9" height="96" stroke="white" stroke-width="4"/>
<path d="M1030 1995.5V2119M924 1995.5V2119" stroke="white" stroke-width="4"/>
<rect x="1116" y="2270" width="39" height="39" stroke="white" stroke-width="4"/>
<rect x="465" y="2118" width="40" height="36" fill="#7F7F7F" stroke="white" stroke-width="4"/>
<rect x="505" y="2129" width="40" height="36" fill="#7F7F7F" stroke="white" stroke-width="4"/>
<rect x="672" y="2061" width="44" height="125" fill="#7F7F7F" stroke="white" stroke-width="4"/>
<rect x="364" y="2295" width="39" height="39" stroke="white" stroke-width="4"/>
<line x1="1641" y1="2467" x2="1474" y2="2467" stroke="white" stroke-width="8"/>
<line x1="1873" y1="2532" x2="1641" y2="2532" stroke="white" stroke-width="4"/>
<path d="M362.5 1791H360.5V1793V1877V1879H362.5H394H440.5H442.5V1877V1793V1791H440.5H394H362.5Z" stroke="white" stroke-width="4"/>
<path d="M394 1793V1877" stroke="white" stroke-width="4"/>
<path d="M2234.5 2046.75H2332.5M2687.5 2046.75H2332.5M2332.5 2046.75V2350.5H2234" stroke="white" stroke-width="7"/>
<path d="M631.5 2277H360" stroke="white" stroke-width="4"/>
<rect x="360" y="2015" width="42" height="44" fill="#7F7F7F" stroke="white" stroke-width="4"/>
<rect x="360" y="2233" width="43" height="41" fill="#7F7F7F" stroke="white" stroke-width="4"/>
<rect width="546" height="87" transform="translate(1458 596)" fill="#595959" fill-opacity="0.7"/>
<path d="M1499.1 650.09H1485.23L1482.6 658H1474.18L1488.48 619.609H1495.81L1510.18 658H1501.76L1499.1 650.09ZM1487.37 643.683H1496.97L1492.14 629.312L1487.37 643.683ZM1522.45 622.457V629.471H1527.33V635.061H1522.45V649.299C1522.45 650.354 1522.65 651.109 1523.06 651.566C1523.46 652.023 1524.23 652.252 1525.38 652.252C1526.22 652.252 1526.97 652.19 1527.62 652.067V657.842C1526.12 658.299 1524.58 658.527 1523 658.527C1517.66 658.527 1514.93 655.829 1514.83 650.433V635.061H1510.66V629.471H1514.83V622.457H1522.45ZM1541.24 622.457V629.471H1546.11V635.061H1541.24V649.299C1541.24 650.354 1541.44 651.109 1541.84 651.566C1542.25 652.023 1543.02 652.252 1544.16 652.252C1545.01 652.252 1545.75 652.19 1546.4 652.067V657.842C1544.91 658.299 1543.37 658.527 1541.79 658.527C1536.45 658.527 1533.72 655.829 1533.62 650.433V635.061H1529.45V629.471H1533.62V622.457H1541.24ZM1567.43 658C1567.08 657.314 1566.82 656.462 1566.67 655.442C1564.82 657.499 1562.42 658.527 1559.47 658.527C1556.67 658.527 1554.35 657.719 1552.51 656.102C1550.68 654.484 1549.76 652.445 1549.76 649.984C1549.76 646.961 1550.88 644.641 1553.11 643.023C1555.36 641.406 1558.61 640.589 1562.84 640.571H1566.35V638.937C1566.35 637.618 1566.01 636.563 1565.32 635.772C1564.65 634.981 1563.59 634.586 1562.13 634.586C1560.85 634.586 1559.84 634.894 1559.1 635.509C1558.38 636.124 1558.02 636.968 1558.02 638.04H1550.4C1550.4 636.388 1550.91 634.858 1551.93 633.452C1552.95 632.046 1554.39 630.947 1556.25 630.156C1558.11 629.348 1560.21 628.943 1562.53 628.943C1566.04 628.943 1568.83 629.831 1570.88 631.606C1572.96 633.364 1574 635.843 1574 639.042V651.408C1574.01 654.115 1574.39 656.163 1575.13 657.552V658H1567.43ZM1561.13 652.7C1562.25 652.7 1563.29 652.454 1564.24 651.962C1565.19 651.452 1565.89 650.775 1566.35 649.932V645.027H1563.5C1559.69 645.027 1557.66 646.346 1557.41 648.982L1557.38 649.431C1557.38 650.38 1557.72 651.162 1558.39 651.777C1559.05 652.393 1559.97 652.7 1561.13 652.7ZM1592.25 652.384C1593.66 652.384 1594.8 651.997 1595.68 651.224C1596.56 650.45 1597.02 649.422 1597.05 648.139H1604.2C1604.18 650.072 1603.65 651.848 1602.62 653.465C1601.58 655.064 1600.16 656.312 1598.35 657.209C1596.55 658.088 1594.57 658.527 1592.39 658.527C1588.31 658.527 1585.09 657.235 1582.74 654.651C1580.38 652.05 1579.2 648.464 1579.2 643.894V643.393C1579.2 638.998 1580.37 635.491 1582.71 632.872C1585.05 630.253 1588.26 628.943 1592.33 628.943C1595.9 628.943 1598.76 629.963 1600.9 632.002C1603.07 634.023 1604.16 636.722 1604.2 640.097H1597.05C1597.02 638.62 1596.56 637.425 1595.68 636.511C1594.8 635.579 1593.64 635.113 1592.2 635.113C1590.43 635.113 1589.08 635.764 1588.17 637.064C1587.27 638.348 1586.82 640.439 1586.82 643.34V644.131C1586.82 647.066 1587.27 649.176 1588.17 650.459C1589.06 651.742 1590.43 652.384 1592.25 652.384ZM1619.45 646.557L1616.71 649.299V658H1609.09V617.5H1616.71V639.938L1618.19 638.04L1625.49 629.471H1634.64L1624.33 641.362L1635.54 658H1626.78L1619.45 646.557ZM1651.08 658.527C1646.9 658.527 1643.49 657.244 1640.85 654.678C1638.23 652.111 1636.92 648.692 1636.92 644.421V643.683C1636.92 640.817 1637.47 638.26 1638.58 636.01C1639.69 633.742 1641.25 632.002 1643.27 630.789C1645.31 629.559 1647.63 628.943 1650.24 628.943C1654.14 628.943 1657.2 630.174 1659.44 632.635C1661.69 635.096 1662.81 638.585 1662.81 643.103V646.214H1644.65C1644.89 648.077 1645.63 649.571 1646.86 650.696C1648.11 651.821 1649.68 652.384 1651.58 652.384C1654.52 652.384 1656.81 651.32 1658.46 649.193L1662.21 653.386C1661.06 655.003 1659.52 656.269 1657.57 657.183C1655.61 658.079 1653.45 658.527 1651.08 658.527ZM1650.21 635.113C1648.7 635.113 1647.47 635.623 1646.52 636.643C1645.59 637.662 1644.99 639.121 1644.72 641.02H1655.32V640.413C1655.29 638.726 1654.83 637.425 1653.95 636.511C1653.07 635.579 1651.83 635.113 1650.21 635.113ZM1683.73 636.616C1682.7 636.476 1681.78 636.405 1680.99 636.405C1678.11 636.405 1676.22 637.381 1675.32 639.332V658H1667.7V629.471H1674.9L1675.11 632.872C1676.64 630.253 1678.76 628.943 1681.47 628.943C1682.31 628.943 1683.1 629.058 1683.84 629.286L1683.73 636.616ZM1722.36 647.928C1722.36 646.434 1721.83 645.291 1720.78 644.5C1719.72 643.691 1717.83 642.848 1715.08 641.969C1712.34 641.072 1710.17 640.193 1708.57 639.332C1704.21 636.977 1702.03 633.804 1702.03 629.813C1702.03 627.739 1702.61 625.894 1703.77 624.276C1704.95 622.642 1706.63 621.367 1708.81 620.453C1711.01 619.539 1713.47 619.082 1716.19 619.082C1718.93 619.082 1721.38 619.583 1723.52 620.585C1725.67 621.569 1727.33 622.967 1728.5 624.777C1729.7 626.588 1730.3 628.645 1730.3 630.947H1722.39C1722.39 629.189 1721.83 627.827 1720.73 626.86C1719.62 625.876 1718.06 625.384 1716.06 625.384C1714.13 625.384 1712.62 625.797 1711.55 626.623C1710.48 627.432 1709.94 628.504 1709.94 629.84C1709.94 631.088 1710.57 632.134 1711.81 632.978C1713.08 633.821 1714.93 634.612 1717.38 635.351C1721.88 636.704 1725.16 638.383 1727.21 640.387C1729.27 642.391 1730.3 644.887 1730.3 647.875C1730.3 651.197 1729.04 653.808 1726.53 655.706C1724.01 657.587 1720.63 658.527 1716.38 658.527C1713.42 658.527 1710.73 657.991 1708.31 656.919C1705.88 655.829 1704.03 654.344 1702.74 652.463C1701.48 650.582 1700.85 648.402 1700.85 645.924H1708.78C1708.78 650.16 1711.31 652.278 1716.38 652.278C1718.26 652.278 1719.72 651.9 1720.78 651.145C1721.83 650.371 1722.36 649.299 1722.36 647.928ZM1743.76 658H1736.11V629.471H1743.76V658ZM1735.66 622.088C1735.66 620.945 1736.04 620.005 1736.8 619.267C1737.57 618.528 1738.62 618.159 1739.93 618.159C1741.23 618.159 1742.27 618.528 1743.05 619.267C1743.82 620.005 1744.21 620.945 1744.21 622.088C1744.21 623.248 1743.81 624.197 1743.02 624.936C1742.25 625.674 1741.22 626.043 1739.93 626.043C1738.65 626.043 1737.61 625.674 1736.82 624.936C1736.05 624.197 1735.66 623.248 1735.66 622.088ZM1749.41 643.524C1749.41 639.077 1750.41 635.535 1752.39 632.898C1754.4 630.262 1757.13 628.943 1760.59 628.943C1763.37 628.943 1765.66 629.98 1767.47 632.055V617.5H1775.12V658H1768.24L1767.87 654.968C1765.97 657.341 1763.53 658.527 1760.54 658.527C1757.18 658.527 1754.48 657.209 1752.44 654.572C1750.42 651.918 1749.41 648.235 1749.41 643.524ZM1757.03 644.078C1757.03 646.75 1757.5 648.798 1758.43 650.222C1759.36 651.646 1760.72 652.357 1762.49 652.357C1764.85 652.357 1766.51 651.364 1767.47 649.378V638.119C1766.52 636.133 1764.88 635.14 1762.54 635.14C1758.87 635.14 1757.03 638.119 1757.03 644.078ZM1794.7 658.527C1790.51 658.527 1787.1 657.244 1784.47 654.678C1781.85 652.111 1780.54 648.692 1780.54 644.421V643.683C1780.54 640.817 1781.09 638.26 1782.2 636.01C1783.31 633.742 1784.87 632.002 1786.89 630.789C1788.93 629.559 1791.25 628.943 1793.85 628.943C1797.76 628.943 1800.82 630.174 1803.06 632.635C1805.31 635.096 1806.43 638.585 1806.43 643.103V646.214H1788.26C1788.51 648.077 1789.25 649.571 1790.48 650.696C1791.73 651.821 1793.3 652.384 1795.2 652.384C1798.13 652.384 1800.43 651.32 1802.08 649.193L1805.82 653.386C1804.68 655.003 1803.14 656.269 1801.18 657.183C1799.23 658.079 1797.07 658.527 1794.7 658.527ZM1793.83 635.113C1792.32 635.113 1791.09 635.623 1790.14 636.643C1789.2 637.662 1788.61 639.121 1788.34 641.02H1798.94V640.413C1798.91 638.726 1798.45 637.425 1797.57 636.511C1796.69 635.579 1795.44 635.113 1793.83 635.113ZM1845.72 647.928C1845.72 646.434 1845.19 645.291 1844.14 644.5C1843.08 643.691 1841.18 642.848 1838.44 641.969C1835.7 641.072 1833.53 640.193 1831.93 639.332C1827.57 636.977 1825.39 633.804 1825.39 629.813C1825.39 627.739 1825.97 625.894 1827.13 624.276C1828.31 622.642 1829.98 621.367 1832.16 620.453C1834.36 619.539 1836.82 619.082 1839.55 619.082C1842.29 619.082 1844.73 619.583 1846.88 620.585C1849.02 621.569 1850.68 622.967 1851.86 624.777C1853.06 626.588 1853.65 628.645 1853.65 630.947H1845.74C1845.74 629.189 1845.19 627.827 1844.08 626.86C1842.98 625.876 1841.42 625.384 1839.42 625.384C1837.48 625.384 1835.98 625.797 1834.91 626.623C1833.83 627.432 1833.3 628.504 1833.3 629.84C1833.3 631.088 1833.92 632.134 1835.17 632.978C1836.44 633.821 1838.29 634.612 1840.73 635.351C1845.23 636.704 1848.51 638.383 1850.57 640.387C1852.63 642.391 1853.65 644.887 1853.65 647.875C1853.65 651.197 1852.4 653.808 1849.88 655.706C1847.37 657.587 1843.99 658.527 1839.73 658.527C1836.78 658.527 1834.09 657.991 1831.66 656.919C1829.24 655.829 1827.38 654.344 1826.1 652.463C1824.83 650.582 1824.2 648.402 1824.2 645.924H1832.14C1832.14 650.16 1834.67 652.278 1839.73 652.278C1841.61 652.278 1843.08 651.9 1844.14 651.145C1845.19 650.371 1845.72 649.299 1845.72 647.928ZM1884.75 643.999C1884.75 648.394 1883.75 651.918 1881.75 654.572C1879.76 657.209 1877.07 658.527 1873.68 658.527C1870.8 658.527 1868.47 657.525 1866.69 655.521V668.969H1859.07V629.471H1866.14L1866.4 632.266C1868.25 630.051 1870.66 628.943 1873.63 628.943C1877.14 628.943 1879.88 630.244 1881.83 632.846C1883.78 635.447 1884.75 639.033 1884.75 643.604V643.999ZM1877.13 643.445C1877.13 640.791 1876.66 638.743 1875.71 637.302C1874.78 635.86 1873.42 635.14 1871.62 635.14C1869.23 635.14 1867.59 636.054 1866.69 637.882V649.562C1867.62 651.443 1869.28 652.384 1871.68 652.384C1875.31 652.384 1877.13 649.404 1877.13 643.445ZM1906.57 658C1906.22 657.314 1905.97 656.462 1905.81 655.442C1903.96 657.499 1901.56 658.527 1898.61 658.527C1895.81 658.527 1893.49 657.719 1891.65 656.102C1889.82 654.484 1888.91 652.445 1888.91 649.984C1888.91 646.961 1890.02 644.641 1892.25 643.023C1894.5 641.406 1897.75 640.589 1901.98 640.571H1905.49V638.937C1905.49 637.618 1905.15 636.563 1904.46 635.772C1903.79 634.981 1902.73 634.586 1901.27 634.586C1899.99 634.586 1898.98 634.894 1898.24 635.509C1897.52 636.124 1897.16 636.968 1897.16 638.04H1889.54C1889.54 636.388 1890.05 634.858 1891.07 633.452C1892.09 632.046 1893.53 630.947 1895.39 630.156C1897.26 629.348 1899.35 628.943 1901.67 628.943C1905.18 628.943 1907.97 629.831 1910.03 631.606C1912.1 633.364 1913.14 635.843 1913.14 639.042V651.408C1913.15 654.115 1913.53 656.163 1914.27 657.552V658H1906.57ZM1900.27 652.7C1901.39 652.7 1902.43 652.454 1903.38 651.962C1904.33 651.452 1905.03 650.775 1905.49 649.932V645.027H1902.64C1898.83 645.027 1896.8 646.346 1896.55 648.982L1896.53 649.431C1896.53 650.38 1896.86 651.162 1897.53 651.777C1898.2 652.393 1899.11 652.7 1900.27 652.7ZM1944.34 647.638L1948.09 629.471H1955.44L1948.17 658H1941.78L1936.38 640.044L1930.97 658H1924.62L1917.34 629.471H1924.7L1928.42 647.611L1933.64 629.471H1939.15L1944.34 647.638ZM1966.79 629.471L1967.03 632.767C1969.07 630.218 1971.8 628.943 1975.23 628.943C1978.25 628.943 1980.5 629.831 1981.98 631.606C1983.46 633.382 1984.21 636.036 1984.25 639.569V658H1976.63V639.754C1976.63 638.137 1976.28 636.968 1975.57 636.247C1974.87 635.509 1973.7 635.14 1972.07 635.14C1969.92 635.14 1968.31 636.054 1967.24 637.882V658H1959.62V629.471H1966.79Z" fill="white"/>
<rect width="561" height="87" transform="translate(1155 2624)" fill="#595959" fill-opacity="0.7"/>
<path d="M1174.43 2686V2647.61H1186.24C1189.62 2647.61 1192.63 2648.37 1195.28 2649.9C1197.96 2651.42 1200.04 2653.58 1201.53 2656.39C1203.03 2659.18 1203.77 2662.37 1203.77 2665.93V2667.7C1203.77 2671.27 1203.04 2674.44 1201.56 2677.22C1200.1 2680 1198.04 2682.15 1195.36 2683.68C1192.69 2685.21 1189.68 2685.98 1186.32 2686H1174.43ZM1182.34 2654.02V2679.65H1186.16C1189.25 2679.65 1191.62 2678.63 1193.25 2676.61C1194.89 2674.59 1195.72 2671.7 1195.76 2667.94V2665.91C1195.76 2662.01 1194.95 2659.05 1193.33 2657.05C1191.72 2655.03 1189.35 2654.02 1186.24 2654.02H1182.34ZM1222.72 2686.53C1218.54 2686.53 1215.12 2685.24 1212.49 2682.68C1209.87 2680.11 1208.56 2676.69 1208.56 2672.42V2671.68C1208.56 2668.82 1209.11 2666.26 1210.22 2664.01C1211.33 2661.74 1212.89 2660 1214.91 2658.79C1216.95 2657.56 1219.27 2656.94 1221.87 2656.94C1225.78 2656.94 1228.84 2658.17 1231.08 2660.63C1233.33 2663.1 1234.45 2666.58 1234.45 2671.1V2674.21H1216.29C1216.53 2676.08 1217.27 2677.57 1218.5 2678.7C1219.75 2679.82 1221.32 2680.38 1223.22 2680.38C1226.16 2680.38 1228.45 2679.32 1230.1 2677.19L1233.85 2681.39C1232.7 2683 1231.16 2684.27 1229.21 2685.18C1227.25 2686.08 1225.09 2686.53 1222.72 2686.53ZM1221.85 2663.11C1220.34 2663.11 1219.11 2663.62 1218.16 2664.64C1217.23 2665.66 1216.63 2667.12 1216.36 2669.02H1226.96V2668.41C1226.93 2666.73 1226.47 2665.42 1225.59 2664.51C1224.71 2663.58 1223.47 2663.11 1221.85 2663.11ZM1241.43 2686V2663.06H1237.18V2657.47H1241.43V2655.04C1241.43 2651.85 1242.34 2649.37 1244.17 2647.61C1246.01 2645.83 1248.59 2644.95 1251.89 2644.95C1252.95 2644.95 1254.24 2645.12 1255.77 2645.47L1255.69 2651.38C1255.06 2651.22 1254.28 2651.14 1253.37 2651.14C1250.5 2651.14 1249.07 2652.49 1249.07 2655.18V2657.47H1254.74V2663.06H1249.07V2686H1241.43ZM1271.73 2686.53C1267.55 2686.53 1264.14 2685.24 1261.5 2682.68C1258.88 2680.11 1257.58 2676.69 1257.58 2672.42V2671.68C1257.58 2668.82 1258.13 2666.26 1259.24 2664.01C1260.34 2661.74 1261.91 2660 1263.93 2658.79C1265.97 2657.56 1268.29 2656.94 1270.89 2656.94C1274.79 2656.94 1277.86 2658.17 1280.09 2660.63C1282.34 2663.1 1283.47 2666.58 1283.47 2671.1V2674.21H1265.3C1265.55 2676.08 1266.29 2677.57 1267.52 2678.7C1268.76 2679.82 1270.34 2680.38 1272.24 2680.38C1275.17 2680.38 1277.46 2679.32 1279.12 2677.19L1282.86 2681.39C1281.72 2683 1280.17 2684.27 1278.22 2685.18C1276.27 2686.08 1274.11 2686.53 1271.73 2686.53ZM1270.86 2663.11C1269.35 2663.11 1268.12 2663.62 1267.17 2664.64C1266.24 2665.66 1265.64 2667.12 1265.38 2669.02H1275.98V2668.41C1275.94 2666.73 1275.49 2665.42 1274.61 2664.51C1273.73 2663.58 1272.48 2663.11 1270.86 2663.11ZM1295.37 2657.47L1295.61 2660.77C1297.65 2658.22 1300.38 2656.94 1303.81 2656.94C1306.83 2656.94 1309.08 2657.83 1310.56 2659.61C1312.04 2661.38 1312.79 2664.04 1312.83 2667.57V2686H1305.21V2667.75C1305.21 2666.14 1304.86 2664.97 1304.15 2664.25C1303.45 2663.51 1302.28 2663.14 1300.65 2663.14C1298.5 2663.14 1296.89 2664.05 1295.82 2665.88V2686H1288.2V2657.47H1295.37ZM1317.98 2671.52C1317.98 2667.08 1318.97 2663.54 1320.96 2660.9C1322.96 2658.26 1325.7 2656.94 1329.16 2656.94C1331.94 2656.94 1334.23 2657.98 1336.04 2660.05V2645.5H1343.69V2686H1336.81L1336.44 2682.97C1334.54 2685.34 1332.1 2686.53 1329.11 2686.53C1325.75 2686.53 1323.05 2685.21 1321.01 2682.57C1318.99 2679.92 1317.98 2676.24 1317.98 2671.52ZM1325.6 2672.08C1325.6 2674.75 1326.07 2676.8 1327 2678.22C1327.93 2679.65 1329.28 2680.36 1331.06 2680.36C1333.41 2680.36 1335.08 2679.36 1336.04 2677.38V2666.12C1335.09 2664.13 1333.45 2663.14 1331.11 2663.14C1327.44 2663.14 1325.6 2666.12 1325.6 2672.08ZM1363.27 2686.53C1359.08 2686.53 1355.67 2685.24 1353.04 2682.68C1350.42 2680.11 1349.11 2676.69 1349.11 2672.42V2671.68C1349.11 2668.82 1349.66 2666.26 1350.77 2664.01C1351.88 2661.74 1353.44 2660 1355.46 2658.79C1357.5 2657.56 1359.82 2656.94 1362.42 2656.94C1366.32 2656.94 1369.39 2658.17 1371.62 2660.63C1373.87 2663.1 1375 2666.58 1375 2671.1V2674.21H1356.83C1357.08 2676.08 1357.82 2677.57 1359.05 2678.7C1360.3 2679.82 1361.87 2680.38 1363.77 2680.38C1366.7 2680.38 1369 2679.32 1370.65 2677.19L1374.39 2681.39C1373.25 2683 1371.7 2684.27 1369.75 2685.18C1367.8 2686.08 1365.64 2686.53 1363.27 2686.53ZM1362.4 2663.11C1360.88 2663.11 1359.65 2663.62 1358.7 2664.64C1357.77 2665.66 1357.18 2667.12 1356.91 2669.02H1367.51V2668.41C1367.48 2666.73 1367.02 2665.42 1366.14 2664.51C1365.26 2663.58 1364.01 2663.11 1362.4 2663.11ZM1395.92 2664.62C1394.88 2664.48 1393.97 2664.41 1393.18 2664.41C1390.3 2664.41 1388.41 2665.38 1387.51 2667.33V2686H1379.89V2657.47H1387.09L1387.3 2660.87C1388.83 2658.25 1390.95 2656.94 1393.65 2656.94C1394.5 2656.94 1395.29 2657.06 1396.03 2657.29L1395.92 2664.62ZM1434.55 2675.93C1434.55 2674.43 1434.02 2673.29 1432.97 2672.5C1431.91 2671.69 1430.01 2670.85 1427.27 2669.97C1424.53 2669.07 1422.36 2668.19 1420.76 2667.33C1416.4 2664.98 1414.22 2661.8 1414.22 2657.81C1414.22 2655.74 1414.8 2653.89 1415.96 2652.28C1417.14 2650.64 1418.82 2649.37 1421 2648.45C1423.19 2647.54 1425.65 2647.08 1428.38 2647.08C1431.12 2647.08 1433.56 2647.58 1435.71 2648.58C1437.85 2649.57 1439.51 2650.97 1440.69 2652.78C1441.89 2654.59 1442.49 2656.64 1442.49 2658.95H1434.57C1434.57 2657.19 1434.02 2655.83 1432.91 2654.86C1431.81 2653.88 1430.25 2653.38 1428.25 2653.38C1426.31 2653.38 1424.81 2653.8 1423.74 2654.62C1422.67 2655.43 1422.13 2656.5 1422.13 2657.84C1422.13 2659.09 1422.75 2660.13 1424 2660.98C1425.27 2661.82 1427.12 2662.61 1429.57 2663.35C1434.07 2664.7 1437.34 2666.38 1439.4 2668.39C1441.46 2670.39 1442.49 2672.89 1442.49 2675.88C1442.49 2679.2 1441.23 2681.81 1438.71 2683.71C1436.2 2685.59 1432.82 2686.53 1428.56 2686.53C1425.61 2686.53 1422.92 2685.99 1420.49 2684.92C1418.07 2683.83 1416.21 2682.34 1414.93 2680.46C1413.67 2678.58 1413.03 2676.4 1413.03 2673.92H1420.97C1420.97 2678.16 1423.5 2680.28 1428.56 2680.28C1430.44 2680.28 1431.91 2679.9 1432.97 2679.14C1434.02 2678.37 1434.55 2677.3 1434.55 2675.93ZM1455.94 2686H1448.3V2657.47H1455.94V2686ZM1447.85 2650.09C1447.85 2648.95 1448.23 2648 1448.98 2647.27C1449.76 2646.53 1450.8 2646.16 1452.12 2646.16C1453.42 2646.16 1454.46 2646.53 1455.23 2647.27C1456.01 2648 1456.39 2648.95 1456.39 2650.09C1456.39 2651.25 1456 2652.2 1455.21 2652.94C1454.43 2653.67 1453.4 2654.04 1452.12 2654.04C1450.84 2654.04 1449.8 2653.67 1449.01 2652.94C1448.24 2652.2 1447.85 2651.25 1447.85 2650.09ZM1461.6 2671.52C1461.6 2667.08 1462.59 2663.54 1464.58 2660.9C1466.58 2658.26 1469.32 2656.94 1472.78 2656.94C1475.56 2656.94 1477.85 2657.98 1479.66 2660.05V2645.5H1487.31V2686H1480.43L1480.06 2682.97C1478.16 2685.34 1475.72 2686.53 1472.73 2686.53C1469.37 2686.53 1466.67 2685.21 1464.63 2682.57C1462.61 2679.92 1461.6 2676.24 1461.6 2671.52ZM1469.22 2672.08C1469.22 2674.75 1469.69 2676.8 1470.62 2678.22C1471.55 2679.65 1472.9 2680.36 1474.68 2680.36C1477.03 2680.36 1478.69 2679.36 1479.66 2677.38V2666.12C1478.71 2664.13 1477.07 2663.14 1474.73 2663.14C1471.06 2663.14 1469.22 2666.12 1469.22 2672.08ZM1506.89 2686.53C1502.7 2686.53 1499.29 2685.24 1496.65 2682.68C1494.04 2680.11 1492.73 2676.69 1492.73 2672.42V2671.68C1492.73 2668.82 1493.28 2666.26 1494.39 2664.01C1495.49 2661.74 1497.06 2660 1499.08 2658.79C1501.12 2657.56 1503.44 2656.94 1506.04 2656.94C1509.94 2656.94 1513.01 2658.17 1515.24 2660.63C1517.49 2663.1 1518.62 2666.58 1518.62 2671.1V2674.21H1500.45C1500.7 2676.08 1501.44 2677.57 1502.67 2678.7C1503.91 2679.82 1505.49 2680.38 1507.39 2680.38C1510.32 2680.38 1512.62 2679.32 1514.27 2677.19L1518.01 2681.39C1516.87 2683 1515.32 2684.27 1513.37 2685.18C1511.42 2686.08 1509.26 2686.53 1506.89 2686.53ZM1506.02 2663.11C1504.5 2663.11 1503.27 2663.62 1502.32 2664.64C1501.39 2665.66 1500.79 2667.12 1500.53 2669.02H1511.13V2668.41C1511.1 2666.73 1510.64 2665.42 1509.76 2664.51C1508.88 2663.58 1507.63 2663.11 1506.02 2663.11ZM1557.9 2675.93C1557.9 2674.43 1557.38 2673.29 1556.32 2672.5C1555.27 2671.69 1553.37 2670.85 1550.63 2669.97C1547.89 2669.07 1545.71 2668.19 1544.11 2667.33C1539.76 2664.98 1537.58 2661.8 1537.58 2657.81C1537.58 2655.74 1538.16 2653.89 1539.32 2652.28C1540.49 2650.64 1542.17 2649.37 1544.35 2648.45C1546.55 2647.54 1549.01 2647.08 1551.73 2647.08C1554.48 2647.08 1556.92 2647.58 1559.06 2648.58C1561.21 2649.57 1562.87 2650.97 1564.05 2652.78C1565.24 2654.59 1565.84 2656.64 1565.84 2658.95H1557.93C1557.93 2657.19 1557.38 2655.83 1556.27 2654.86C1555.16 2653.88 1553.61 2653.38 1551.6 2653.38C1549.67 2653.38 1548.17 2653.8 1547.09 2654.62C1546.02 2655.43 1545.49 2656.5 1545.49 2657.84C1545.49 2659.09 1546.11 2660.13 1547.36 2660.98C1548.62 2661.82 1550.48 2662.61 1552.92 2663.35C1557.42 2664.7 1560.7 2666.38 1562.76 2668.39C1564.81 2670.39 1565.84 2672.89 1565.84 2675.88C1565.84 2679.2 1564.58 2681.81 1562.07 2683.71C1559.56 2685.59 1556.17 2686.53 1551.92 2686.53C1548.97 2686.53 1546.28 2685.99 1543.85 2684.92C1541.43 2683.83 1539.57 2682.34 1538.29 2680.46C1537.02 2678.58 1536.39 2676.4 1536.39 2673.92H1544.33C1544.33 2678.16 1546.86 2680.28 1551.92 2680.28C1553.8 2680.28 1555.27 2679.9 1556.32 2679.14C1557.38 2678.37 1557.9 2677.3 1557.9 2675.93ZM1596.94 2672C1596.94 2676.39 1595.94 2679.92 1593.93 2682.57C1591.95 2685.21 1589.26 2686.53 1585.87 2686.53C1582.98 2686.53 1580.65 2685.53 1578.88 2683.52V2696.97H1571.26V2657.47H1578.33L1578.59 2660.27C1580.43 2658.05 1582.84 2656.94 1585.81 2656.94C1589.33 2656.94 1592.06 2658.24 1594.01 2660.85C1595.97 2663.45 1596.94 2667.03 1596.94 2671.6V2672ZM1589.32 2671.45C1589.32 2668.79 1588.85 2666.74 1587.9 2665.3C1586.97 2663.86 1585.6 2663.14 1583.81 2663.14C1581.42 2663.14 1579.78 2664.05 1578.88 2665.88V2677.56C1579.81 2679.44 1581.47 2680.38 1583.86 2680.38C1587.5 2680.38 1589.32 2677.4 1589.32 2671.45ZM1618.76 2686C1618.41 2685.31 1618.15 2684.46 1617.99 2683.44C1616.15 2685.5 1613.75 2686.53 1610.8 2686.53C1608 2686.53 1605.68 2685.72 1603.84 2684.1C1602.01 2682.48 1601.09 2680.45 1601.09 2677.98C1601.09 2674.96 1602.21 2672.64 1604.44 2671.02C1606.69 2669.41 1609.93 2668.59 1614.17 2668.57H1617.68V2666.94C1617.68 2665.62 1617.34 2664.56 1616.65 2663.77C1615.98 2662.98 1614.92 2662.59 1613.46 2662.59C1612.18 2662.59 1611.17 2662.89 1610.43 2663.51C1609.71 2664.12 1609.35 2664.97 1609.35 2666.04H1601.73C1601.73 2664.39 1602.24 2662.86 1603.26 2661.45C1604.27 2660.05 1605.72 2658.95 1607.58 2658.16C1609.44 2657.35 1611.53 2656.94 1613.85 2656.94C1617.37 2656.94 1620.16 2657.83 1622.21 2659.61C1624.29 2661.36 1625.32 2663.84 1625.32 2667.04V2679.41C1625.34 2682.12 1625.72 2684.16 1626.46 2685.55V2686H1618.76ZM1612.46 2680.7C1613.58 2680.7 1614.62 2680.45 1615.57 2679.96C1616.52 2679.45 1617.22 2678.78 1617.68 2677.93V2673.03H1614.83C1611.02 2673.03 1608.99 2674.35 1608.74 2676.98L1608.71 2677.43C1608.71 2678.38 1609.05 2679.16 1609.72 2679.78C1610.38 2680.39 1611.3 2680.7 1612.46 2680.7ZM1656.53 2675.64L1660.27 2657.47H1667.63L1660.35 2686H1653.97L1648.57 2668.04L1643.16 2686H1636.81L1629.53 2657.47H1636.89L1640.6 2675.61L1645.82 2657.47H1651.34L1656.53 2675.64ZM1678.98 2657.47L1679.22 2660.77C1681.26 2658.22 1683.99 2656.94 1687.42 2656.94C1690.44 2656.94 1692.69 2657.83 1694.17 2659.61C1695.64 2661.38 1696.4 2664.04 1696.44 2667.57V2686H1688.82V2667.75C1688.82 2666.14 1688.46 2664.97 1687.76 2664.25C1687.06 2663.51 1685.89 2663.14 1684.25 2663.14C1682.11 2663.14 1680.5 2664.05 1679.43 2665.88V2686H1671.81V2657.47H1678.98Z" fill="white"/>
<path d="M2563.14 2368V2265.62H2599C2611.42 2265.62 2620.84 2268.02 2627.27 2272.8C2633.69 2277.53 2636.9 2284.49 2636.9 2293.68C2636.9 2298.7 2635.61 2303.12 2633.03 2306.97C2630.45 2310.77 2626.87 2313.55 2622.27 2315.34C2627.52 2316.65 2631.65 2319.3 2634.65 2323.28C2637.7 2327.27 2639.22 2332.14 2639.22 2337.91C2639.22 2347.75 2636.08 2355.2 2629.8 2360.27C2623.52 2365.33 2614.56 2367.91 2602.94 2368H2563.14ZM2584.23 2323.42V2351.05H2602.3C2607.27 2351.05 2611.14 2349.88 2613.91 2347.54C2616.72 2345.15 2618.12 2341.87 2618.12 2337.7C2618.12 2328.32 2613.27 2323.56 2603.57 2323.42H2584.23ZM2584.23 2308.52H2599.84C2610.48 2308.33 2615.8 2304.09 2615.8 2295.79C2615.8 2291.15 2614.45 2287.82 2611.73 2285.8C2609.05 2283.74 2604.81 2282.71 2599 2282.71H2584.23V2308.52Z" fill="#5F5F5F"/>
<path d="M617.938 2170.91H580.953L573.922 2192H551.492L589.602 2089.62H609.148L647.469 2192H625.039L617.938 2170.91ZM586.648 2153.82H612.242L599.375 2115.5L586.648 2153.82Z" fill="#5F5F5F"/>
<rect width="231" height="87" transform="translate(2109 1317)" fill="#595959" fill-opacity="0.7"/>
<path d="M2128.43 1379V1340.61H2141.88C2146.53 1340.61 2150.07 1341.51 2152.47 1343.3C2154.88 1345.07 2156.09 1347.68 2156.09 1351.13C2156.09 1353.01 2155.6 1354.67 2154.64 1356.11C2153.67 1357.54 2152.33 1358.58 2150.6 1359.25C2152.57 1359.74 2154.12 1360.74 2155.24 1362.23C2156.39 1363.72 2156.96 1365.55 2156.96 1367.71C2156.96 1371.41 2155.78 1374.2 2153.42 1376.1C2151.07 1378 2147.71 1378.96 2143.35 1379H2128.43ZM2136.34 1362.28V1372.65H2143.11C2144.98 1372.65 2146.43 1372.21 2147.46 1371.33C2148.52 1370.43 2149.05 1369.2 2149.05 1367.64C2149.05 1364.12 2147.23 1362.34 2143.59 1362.28H2136.34ZM2136.34 1356.69H2142.19C2146.18 1356.62 2148.18 1355.03 2148.18 1351.92C2148.18 1350.18 2147.67 1348.93 2146.65 1348.18C2145.65 1347.4 2144.05 1347.02 2141.88 1347.02H2136.34V1356.69ZM2185.35 1372.65H2202.15V1379H2177.44V1340.61H2185.35V1372.65ZM2205.56 1364.47C2205.56 1361.64 2206.11 1359.12 2207.2 1356.9C2208.29 1354.69 2209.85 1352.98 2211.89 1351.76C2213.95 1350.55 2216.33 1349.94 2219.04 1349.94C2222.89 1349.94 2226.02 1351.12 2228.45 1353.48C2230.89 1355.83 2232.26 1359.03 2232.54 1363.07L2232.59 1365.03C2232.59 1369.4 2231.37 1372.92 2228.92 1375.57C2226.48 1378.21 2223.2 1379.53 2219.09 1379.53C2214.98 1379.53 2211.69 1378.21 2209.23 1375.57C2206.79 1372.94 2205.56 1369.35 2205.56 1364.81V1364.47ZM2213.18 1365.03C2213.18 1367.73 2213.69 1369.81 2214.71 1371.25C2215.73 1372.67 2217.19 1373.38 2219.09 1373.38C2220.94 1373.38 2222.38 1372.68 2223.41 1371.27C2224.45 1369.85 2224.97 1367.58 2224.97 1364.47C2224.97 1361.82 2224.45 1359.76 2223.41 1358.3C2222.38 1356.84 2220.92 1356.11 2219.04 1356.11C2217.17 1356.11 2215.73 1356.84 2214.71 1358.3C2213.69 1359.74 2213.18 1361.98 2213.18 1365.03ZM2263.53 1365C2263.53 1369.57 2262.56 1373.14 2260.6 1375.7C2258.65 1378.25 2255.93 1379.53 2252.43 1379.53C2249.34 1379.53 2246.87 1378.34 2245.02 1375.97L2244.68 1379H2237.82V1338.5H2245.44V1353.03C2247.2 1350.97 2249.51 1349.94 2252.38 1349.94C2255.86 1349.94 2258.58 1351.23 2260.55 1353.79C2262.54 1356.34 2263.53 1359.94 2263.53 1364.58V1365ZM2255.91 1364.45C2255.91 1361.56 2255.45 1359.46 2254.54 1358.14C2253.63 1356.81 2252.26 1356.14 2250.45 1356.14C2248.03 1356.14 2246.36 1357.13 2245.44 1359.12V1370.38C2246.37 1372.38 2248.06 1373.38 2250.51 1373.38C2252.97 1373.38 2254.58 1372.17 2255.36 1369.75C2255.73 1368.58 2255.91 1366.82 2255.91 1364.45ZM2294.5 1365C2294.5 1369.57 2293.52 1373.14 2291.57 1375.7C2289.62 1378.25 2286.9 1379.53 2283.4 1379.53C2280.3 1379.53 2277.83 1378.34 2275.99 1375.97L2275.65 1379H2268.79V1338.5H2276.41V1353.03C2278.17 1350.97 2280.48 1349.94 2283.35 1349.94C2286.83 1349.94 2289.55 1351.23 2291.52 1353.79C2293.51 1356.34 2294.5 1359.94 2294.5 1364.58V1365ZM2286.88 1364.45C2286.88 1361.56 2286.42 1359.46 2285.51 1358.14C2284.59 1356.81 2283.23 1356.14 2281.42 1356.14C2278.99 1356.14 2277.32 1357.13 2276.41 1359.12V1370.38C2277.34 1372.38 2279.03 1373.38 2281.47 1373.38C2283.93 1373.38 2285.55 1372.17 2286.32 1369.75C2286.69 1368.58 2286.88 1366.82 2286.88 1364.45ZM2310.09 1368.22L2315.37 1350.47H2323.54L2312.07 1383.43L2311.44 1384.93C2309.73 1388.66 2306.92 1390.52 2303 1390.52C2301.89 1390.52 2300.77 1390.36 2299.63 1390.02V1384.25L2300.79 1384.27C2302.23 1384.27 2303.3 1384.05 2304 1383.61C2304.72 1383.17 2305.29 1382.45 2305.69 1381.43L2306.59 1379.08L2296.59 1350.47H2304.79L2310.09 1368.22Z" fill="white"/>
<rect width="245" height="87" transform="translate(1848 1454)" fill="#595959" fill-opacity="0.7"/>
<path d="M1877.76 1477.61L1887.62 1505.45L1897.43 1477.61H1907.82V1516H1899.89V1505.51L1900.68 1487.39L1890.31 1516H1884.88L1874.55 1487.42L1875.34 1505.51V1516H1867.43V1477.61H1877.76ZM1922.81 1516H1915.17V1487.47H1922.81V1516ZM1914.72 1480.09C1914.72 1478.95 1915.09 1478 1915.85 1477.27C1916.62 1476.53 1917.67 1476.16 1918.99 1476.16C1920.29 1476.16 1921.33 1476.53 1922.1 1477.27C1922.87 1478 1923.26 1478.95 1923.26 1480.09C1923.26 1481.25 1922.86 1482.2 1922.07 1482.94C1921.3 1483.67 1920.27 1484.04 1918.99 1484.04C1917.71 1484.04 1916.67 1483.67 1915.88 1482.94C1915.1 1482.2 1914.72 1481.25 1914.72 1480.09ZM1928.47 1501.52C1928.47 1497.08 1929.46 1493.54 1931.45 1490.9C1933.45 1488.26 1936.18 1486.94 1939.65 1486.94C1942.42 1486.94 1944.72 1487.98 1946.53 1490.05V1475.5H1954.17V1516H1947.29L1946.92 1512.97C1945.03 1515.34 1942.58 1516.53 1939.59 1516.53C1936.24 1516.53 1933.54 1515.21 1931.5 1512.57C1929.48 1509.92 1928.47 1506.24 1928.47 1501.52ZM1936.09 1502.08C1936.09 1504.75 1936.55 1506.8 1937.48 1508.22C1938.42 1509.65 1939.77 1510.36 1941.54 1510.36C1943.9 1510.36 1945.56 1509.36 1946.53 1507.38V1496.12C1945.58 1494.13 1943.94 1493.14 1941.6 1493.14C1937.92 1493.14 1936.09 1496.12 1936.09 1502.08ZM1983.02 1509.65H1999.82V1516H1975.11V1477.61H1983.02V1509.65ZM2012.46 1516H2004.81V1487.47H2012.46V1516ZM2004.36 1480.09C2004.36 1478.95 2004.74 1478 2005.5 1477.27C2006.27 1476.53 2007.32 1476.16 2008.63 1476.16C2009.94 1476.16 2010.97 1476.53 2011.75 1477.27C2012.52 1478 2012.91 1478.95 2012.91 1480.09C2012.91 1481.25 2012.51 1482.2 2011.72 1482.94C2010.95 1483.67 2009.92 1484.04 2008.63 1484.04C2007.35 1484.04 2006.31 1483.67 2005.52 1482.94C2004.75 1482.2 2004.36 1481.25 2004.36 1480.09ZM2026.31 1487.47L2026.55 1490.77C2028.59 1488.22 2031.32 1486.94 2034.75 1486.94C2037.77 1486.94 2040.02 1487.83 2041.5 1489.61C2042.98 1491.38 2043.73 1494.04 2043.77 1497.57V1516H2036.15V1497.75C2036.15 1496.14 2035.8 1494.97 2035.09 1494.25C2034.39 1493.51 2033.22 1493.14 2031.59 1493.14C2029.44 1493.14 2027.83 1494.05 2026.76 1495.88V1516H2019.14V1487.47H2026.31ZM2060.47 1504.56L2057.73 1507.3V1516H2050.11V1475.5H2057.73V1497.94L2059.21 1496.04L2066.51 1487.47H2075.66L2065.35 1499.36L2076.56 1516H2067.8L2060.47 1504.56Z" fill="white"/>
<rect width="204" height="87" transform="translate(2125 1805)" fill="#595959" fill-opacity="0.7"/>
<path d="M2144.43 1867V1828.61H2157.88C2162.53 1828.61 2166.07 1829.51 2168.47 1831.3C2170.88 1833.07 2172.09 1835.68 2172.09 1839.13C2172.09 1841.01 2171.6 1842.67 2170.64 1844.11C2169.67 1845.54 2168.33 1846.58 2166.6 1847.25C2168.57 1847.74 2170.12 1848.74 2171.24 1850.23C2172.39 1851.72 2172.96 1853.55 2172.96 1855.71C2172.96 1859.41 2171.78 1862.2 2169.42 1864.1C2167.07 1866 2163.71 1866.96 2159.35 1867H2144.43ZM2152.34 1850.28V1860.65H2159.11C2160.98 1860.65 2162.43 1860.21 2163.46 1859.33C2164.52 1858.43 2165.05 1857.2 2165.05 1855.64C2165.05 1852.12 2163.23 1850.34 2159.59 1850.28H2152.34ZM2152.34 1844.69H2158.19C2162.18 1844.62 2164.18 1843.03 2164.18 1839.92C2164.18 1838.18 2163.67 1836.93 2162.65 1836.18C2161.65 1835.4 2160.05 1835.02 2157.88 1835.02H2152.34V1844.69ZM2203.78 1828.61L2213.64 1856.45L2223.45 1828.61H2233.84V1867H2225.9V1856.51L2226.69 1838.39L2216.33 1867H2210.9L2200.56 1838.42L2201.35 1856.51V1867H2193.44V1828.61H2203.78ZM2257.32 1867C2256.97 1866.31 2256.71 1865.46 2256.55 1864.44C2254.71 1866.5 2252.31 1867.53 2249.35 1867.53C2246.56 1867.53 2244.24 1866.72 2242.39 1865.1C2240.57 1863.48 2239.65 1861.45 2239.65 1858.98C2239.65 1855.96 2240.77 1853.64 2243 1852.02C2245.25 1850.41 2248.49 1849.59 2252.73 1849.57H2256.24V1847.94C2256.24 1846.62 2255.89 1845.56 2255.21 1844.77C2254.54 1843.98 2253.48 1843.59 2252.02 1843.59C2250.73 1843.59 2249.72 1843.89 2248.99 1844.51C2248.26 1845.12 2247.9 1845.97 2247.9 1847.04H2240.28C2240.28 1845.39 2240.79 1843.86 2241.81 1842.45C2242.83 1841.05 2244.27 1839.95 2246.14 1839.16C2248 1838.35 2250.09 1837.94 2252.41 1837.94C2255.93 1837.94 2258.71 1838.83 2260.77 1840.61C2262.85 1842.36 2263.88 1844.84 2263.88 1848.04V1860.41C2263.9 1863.12 2264.28 1865.16 2265.02 1866.55V1867H2257.32ZM2251.02 1861.7C2252.14 1861.7 2253.18 1861.45 2254.13 1860.96C2255.08 1860.45 2255.78 1859.78 2256.24 1858.93V1854.03H2253.39C2249.57 1854.03 2247.54 1855.35 2247.3 1857.98L2247.27 1858.43C2247.27 1859.38 2247.61 1860.16 2248.27 1860.78C2248.94 1861.39 2249.86 1861.7 2251.02 1861.7ZM2278.32 1867H2270.67V1838.47H2278.32V1867ZM2270.22 1831.09C2270.22 1829.95 2270.6 1829 2271.36 1828.27C2272.13 1827.53 2273.18 1827.16 2274.49 1827.16C2275.8 1827.16 2276.83 1827.53 2277.61 1828.27C2278.38 1829 2278.77 1829.95 2278.77 1831.09C2278.77 1832.25 2278.37 1833.2 2277.58 1833.94C2276.81 1834.67 2275.78 1835.04 2274.49 1835.04C2273.21 1835.04 2272.17 1834.67 2271.38 1833.94C2270.61 1833.2 2270.22 1832.25 2270.22 1831.09ZM2292.17 1838.47L2292.41 1841.77C2294.45 1839.22 2297.18 1837.94 2300.61 1837.94C2303.63 1837.94 2305.88 1838.83 2307.36 1840.61C2308.84 1842.38 2309.59 1845.04 2309.63 1848.57V1867H2302.01V1848.75C2302.01 1847.14 2301.66 1845.97 2300.95 1845.25C2300.25 1844.51 2299.08 1844.14 2297.45 1844.14C2295.3 1844.14 2293.69 1845.05 2292.62 1846.88V1867H2285V1838.47H2292.17Z" fill="white"/>
<rect width="178" height="87" transform="translate(2277 2157)" fill="#595959" fill-opacity="0.7"/>
<path d="M2296.43 2219V2180.61H2309.88C2314.53 2180.61 2318.07 2181.51 2320.47 2183.3C2322.88 2185.07 2324.09 2187.68 2324.09 2191.13C2324.09 2193.01 2323.6 2194.67 2322.64 2196.11C2321.67 2197.54 2320.33 2198.58 2318.6 2199.25C2320.57 2199.74 2322.12 2200.74 2323.24 2202.23C2324.39 2203.72 2324.96 2205.55 2324.96 2207.71C2324.96 2211.41 2323.78 2214.2 2321.42 2216.1C2319.07 2218 2315.71 2218.96 2311.35 2219H2296.43ZM2304.34 2202.28V2212.65H2311.11C2312.98 2212.65 2314.43 2212.21 2315.46 2211.33C2316.52 2210.43 2317.05 2209.2 2317.05 2207.64C2317.05 2204.12 2315.23 2202.34 2311.59 2202.28H2304.34ZM2304.34 2196.69H2310.19C2314.18 2196.62 2316.18 2195.03 2316.18 2191.92C2316.18 2190.18 2315.67 2188.93 2314.65 2188.18C2313.65 2187.4 2312.05 2187.02 2309.88 2187.02H2304.34V2196.69ZM2365.35 2208.93C2365.35 2207.43 2364.82 2206.29 2363.77 2205.5C2362.71 2204.69 2360.82 2203.85 2358.07 2202.97C2355.33 2202.07 2353.16 2201.19 2351.56 2200.33C2347.2 2197.98 2345.02 2194.8 2345.02 2190.81C2345.02 2188.74 2345.6 2186.89 2346.76 2185.28C2347.94 2183.64 2349.62 2182.37 2351.8 2181.45C2354 2180.54 2356.46 2180.08 2359.18 2180.08C2361.92 2180.08 2364.37 2180.58 2366.51 2181.58C2368.66 2182.57 2370.32 2183.97 2371.49 2185.78C2372.69 2187.59 2373.29 2189.64 2373.29 2191.95H2365.38C2365.38 2190.19 2364.82 2188.83 2363.72 2187.86C2362.61 2186.88 2361.05 2186.38 2359.05 2186.38C2357.12 2186.38 2355.61 2186.8 2354.54 2187.62C2353.47 2188.43 2352.93 2189.5 2352.93 2190.84C2352.93 2192.09 2353.56 2193.13 2354.8 2193.98C2356.07 2194.82 2357.92 2195.61 2360.37 2196.35C2364.87 2197.7 2368.15 2199.38 2370.2 2201.39C2372.26 2203.39 2373.29 2205.89 2373.29 2208.88C2373.29 2212.2 2372.03 2214.81 2369.52 2216.71C2367 2218.59 2363.62 2219.53 2359.37 2219.53C2356.41 2219.53 2353.72 2218.99 2351.3 2217.92C2348.87 2216.83 2347.02 2215.34 2345.73 2213.46C2344.47 2211.58 2343.83 2209.4 2343.83 2206.92H2351.77C2351.77 2211.16 2354.3 2213.28 2359.37 2213.28C2361.25 2213.28 2362.71 2212.9 2363.77 2212.14C2364.82 2211.37 2365.35 2210.3 2365.35 2208.93ZM2386.75 2219H2379.1V2190.47H2386.75V2219ZM2378.65 2183.09C2378.65 2181.95 2379.03 2181 2379.79 2180.27C2380.56 2179.53 2381.61 2179.16 2382.92 2179.16C2384.22 2179.16 2385.26 2179.53 2386.04 2180.27C2386.81 2181 2387.2 2181.95 2387.2 2183.09C2387.2 2184.25 2386.8 2185.2 2386.01 2185.94C2385.24 2186.67 2384.21 2187.04 2382.92 2187.04C2381.64 2187.04 2380.6 2186.67 2379.81 2185.94C2379.04 2185.2 2378.65 2184.25 2378.65 2183.09ZM2402.71 2183.46V2190.47H2407.59V2196.06H2402.71V2210.3C2402.71 2211.35 2402.91 2212.11 2403.32 2212.57C2403.72 2213.02 2404.5 2213.25 2405.64 2213.25C2406.48 2213.25 2407.23 2213.19 2407.88 2213.07V2218.84C2406.39 2219.3 2404.85 2219.53 2403.27 2219.53C2397.92 2219.53 2395.2 2216.83 2395.09 2211.43V2196.06H2390.93V2190.47H2395.09V2183.46H2402.71ZM2425.51 2219.53C2421.32 2219.53 2417.91 2218.24 2415.28 2215.68C2412.66 2213.11 2411.35 2209.69 2411.35 2205.42V2204.68C2411.35 2201.82 2411.9 2199.26 2413.01 2197.01C2414.12 2194.74 2415.68 2193 2417.7 2191.79C2419.74 2190.56 2422.06 2189.94 2424.66 2189.94C2428.56 2189.94 2431.63 2191.17 2433.86 2193.63C2436.11 2196.1 2437.24 2199.58 2437.24 2204.1V2207.21H2419.07C2419.32 2209.08 2420.06 2210.57 2421.29 2211.7C2422.53 2212.82 2424.11 2213.38 2426.01 2213.38C2428.94 2213.38 2431.24 2212.32 2432.89 2210.19L2436.63 2214.39C2435.49 2216 2433.94 2217.27 2431.99 2218.18C2430.04 2219.08 2427.88 2219.53 2425.51 2219.53ZM2424.64 2196.11C2423.12 2196.11 2421.89 2196.62 2420.94 2197.64C2420.01 2198.66 2419.41 2200.12 2419.15 2202.02H2429.75V2201.41C2429.72 2199.73 2429.26 2198.42 2428.38 2197.51C2427.5 2196.58 2426.25 2196.11 2424.64 2196.11Z" fill="white"/>
<rect width="204" height="87" transform="translate(2729 2186)" fill="#595959" fill-opacity="0.7"/>
<path d="M2748.43 2248V2209.61H2761.88C2766.53 2209.61 2770.07 2210.51 2772.47 2212.3C2774.88 2214.07 2776.09 2216.68 2776.09 2220.13C2776.09 2222.01 2775.6 2223.67 2774.64 2225.11C2773.67 2226.54 2772.33 2227.58 2770.6 2228.25C2772.57 2228.74 2774.12 2229.74 2775.24 2231.23C2776.39 2232.72 2776.96 2234.55 2776.96 2236.71C2776.96 2240.41 2775.78 2243.2 2773.42 2245.1C2771.07 2247 2767.71 2247.96 2763.35 2248H2748.43ZM2756.34 2231.28V2241.65H2763.11C2764.98 2241.65 2766.43 2241.21 2767.46 2240.33C2768.52 2239.43 2769.05 2238.2 2769.05 2236.64C2769.05 2233.12 2767.23 2231.34 2763.59 2231.28H2756.34ZM2756.34 2225.69H2762.19C2766.18 2225.62 2768.18 2224.03 2768.18 2220.92C2768.18 2219.18 2767.67 2217.93 2766.65 2217.18C2765.65 2216.4 2764.05 2216.02 2761.88 2216.02H2756.34V2225.69ZM2797.44 2248V2209.61H2810.89C2815.55 2209.61 2819.08 2210.51 2821.49 2212.3C2823.9 2214.07 2825.1 2216.68 2825.1 2220.13C2825.1 2222.01 2824.62 2223.67 2823.65 2225.11C2822.69 2226.54 2821.34 2227.58 2819.62 2228.25C2821.59 2228.74 2823.13 2229.74 2824.26 2231.23C2825.4 2232.72 2825.97 2234.55 2825.97 2236.71C2825.97 2240.41 2824.79 2243.2 2822.44 2245.1C2820.08 2247 2816.73 2247.96 2812.37 2248H2797.44ZM2805.35 2231.28V2241.65H2812.13C2813.99 2241.65 2815.44 2241.21 2816.48 2240.33C2817.54 2239.43 2818.06 2238.2 2818.06 2236.64C2818.06 2233.12 2816.24 2231.34 2812.6 2231.28H2805.35ZM2805.35 2225.69H2811.21C2815.2 2225.62 2817.19 2224.03 2817.19 2220.92C2817.19 2219.18 2816.68 2217.93 2815.66 2217.18C2814.66 2216.4 2813.07 2216.02 2810.89 2216.02H2805.35V2225.69ZM2848.5 2248C2848.15 2247.31 2847.9 2246.46 2847.74 2245.44C2845.89 2247.5 2843.49 2248.53 2840.54 2248.53C2837.75 2248.53 2835.42 2247.72 2833.58 2246.1C2831.75 2244.48 2830.84 2242.45 2830.84 2239.98C2830.84 2236.96 2831.95 2234.64 2834.19 2233.02C2836.44 2231.41 2839.68 2230.59 2843.91 2230.57H2847.42V2228.94C2847.42 2227.62 2847.08 2226.56 2846.39 2225.77C2845.73 2224.98 2844.66 2224.59 2843.2 2224.59C2841.92 2224.59 2840.91 2224.89 2840.17 2225.51C2839.45 2226.12 2839.09 2226.97 2839.09 2228.04H2831.47C2831.47 2226.39 2831.98 2224.86 2833 2223.45C2834.02 2222.05 2835.46 2220.95 2837.32 2220.16C2839.19 2219.35 2841.28 2218.94 2843.6 2218.94C2847.11 2218.94 2849.9 2219.83 2851.96 2221.61C2854.03 2223.36 2855.07 2225.84 2855.07 2229.04V2241.41C2855.09 2244.12 2855.46 2246.16 2856.2 2247.55V2248H2848.5ZM2842.2 2242.7C2843.33 2242.7 2844.36 2242.45 2845.31 2241.96C2846.26 2241.45 2846.96 2240.78 2847.42 2239.93V2235.03H2844.57C2840.76 2235.03 2838.73 2236.35 2838.48 2238.98L2838.46 2239.43C2838.46 2240.38 2838.79 2241.16 2839.46 2241.78C2840.13 2242.39 2841.04 2242.7 2842.2 2242.7ZM2873.33 2242.38C2874.73 2242.38 2875.88 2242 2876.75 2241.22C2877.63 2240.45 2878.09 2239.42 2878.13 2238.14H2885.27C2885.25 2240.07 2884.73 2241.85 2883.69 2243.46C2882.65 2245.06 2881.23 2246.31 2879.42 2247.21C2877.62 2248.09 2875.64 2248.53 2873.46 2248.53C2869.38 2248.53 2866.16 2247.24 2863.81 2244.65C2861.45 2242.05 2860.28 2238.46 2860.28 2233.89V2233.39C2860.28 2229 2861.44 2225.49 2863.78 2222.87C2866.12 2220.25 2869.33 2218.94 2873.41 2218.94C2876.97 2218.94 2879.83 2219.96 2881.98 2222C2884.14 2224.02 2885.24 2226.72 2885.27 2230.1H2878.13C2878.09 2228.62 2877.63 2227.42 2876.75 2226.51C2875.88 2225.58 2874.72 2225.11 2873.27 2225.11C2871.5 2225.11 2870.15 2225.76 2869.24 2227.06C2868.34 2228.35 2867.9 2230.44 2867.9 2233.34V2234.13C2867.9 2237.07 2868.34 2239.18 2869.24 2240.46C2870.14 2241.74 2871.5 2242.38 2873.33 2242.38ZM2900.52 2236.56L2897.78 2239.3V2248H2890.16V2207.5H2897.78V2229.94L2899.26 2228.04L2906.56 2219.47H2915.71L2905.4 2231.36L2916.61 2248H2907.85L2900.52 2236.56Z" fill="white"/>
<rect width="229" height="87" transform="translate(1154 1024)" fill="#595959" fill-opacity="0.7"/>
<path d="M1183.76 1047.61L1193.62 1075.45L1203.43 1047.61H1213.82V1086H1205.89V1075.51L1206.68 1057.39L1196.31 1086H1190.88L1180.55 1057.42L1181.34 1075.51V1086H1173.43V1047.61H1183.76ZM1228.81 1086H1221.17V1057.47H1228.81V1086ZM1220.72 1050.09C1220.72 1048.95 1221.09 1048 1221.85 1047.27C1222.62 1046.53 1223.67 1046.16 1224.99 1046.16C1226.29 1046.16 1227.33 1046.53 1228.1 1047.27C1228.87 1048 1229.26 1048.95 1229.26 1050.09C1229.26 1051.25 1228.86 1052.2 1228.07 1052.94C1227.3 1053.67 1226.27 1054.04 1224.99 1054.04C1223.71 1054.04 1222.67 1053.67 1221.88 1052.94C1221.1 1052.2 1220.72 1051.25 1220.72 1050.09ZM1234.47 1071.52C1234.47 1067.08 1235.46 1063.54 1237.45 1060.9C1239.45 1058.26 1242.18 1056.94 1245.65 1056.94C1248.42 1056.94 1250.72 1057.98 1252.53 1060.05V1045.5H1260.17V1086H1253.29L1252.92 1082.97C1251.03 1085.34 1248.58 1086.53 1245.59 1086.53C1242.24 1086.53 1239.54 1085.21 1237.5 1082.57C1235.48 1079.92 1234.47 1076.24 1234.47 1071.52ZM1242.09 1072.08C1242.09 1074.75 1242.55 1076.8 1243.48 1078.22C1244.42 1079.65 1245.77 1080.36 1247.54 1080.36C1249.9 1080.36 1251.56 1079.36 1252.53 1077.38V1066.12C1251.58 1064.13 1249.94 1063.14 1247.6 1063.14C1243.92 1063.14 1242.09 1066.12 1242.09 1072.08ZM1308.43 1054.02H1296.67V1086H1288.76V1054.02H1277.15V1047.61H1308.43V1054.02ZM1306.33 1071.47C1306.33 1068.64 1306.87 1066.12 1307.96 1063.9C1309.05 1061.69 1310.62 1059.98 1312.66 1058.76C1314.71 1057.55 1317.1 1056.94 1319.8 1056.94C1323.65 1056.94 1326.79 1058.12 1329.22 1060.48C1331.66 1062.83 1333.02 1066.03 1333.3 1070.07L1333.36 1072.03C1333.36 1076.4 1332.13 1079.92 1329.69 1082.57C1327.25 1085.21 1323.97 1086.53 1319.86 1086.53C1315.74 1086.53 1312.45 1085.21 1309.99 1082.57C1307.55 1079.94 1306.33 1076.35 1306.33 1071.81V1071.47ZM1313.95 1072.03C1313.95 1074.73 1314.46 1076.81 1315.48 1078.25C1316.5 1079.67 1317.96 1080.38 1319.86 1080.38C1321.7 1080.38 1323.14 1079.68 1324.18 1078.27C1325.22 1076.85 1325.74 1074.58 1325.74 1071.47C1325.74 1068.82 1325.22 1066.76 1324.18 1065.3C1323.14 1063.84 1321.68 1063.11 1319.8 1063.11C1317.94 1063.11 1316.5 1063.84 1315.48 1065.3C1314.46 1066.74 1313.95 1068.98 1313.95 1072.03ZM1364.27 1072C1364.27 1076.39 1363.27 1079.92 1361.26 1082.57C1359.28 1085.21 1356.59 1086.53 1353.2 1086.53C1350.31 1086.53 1347.98 1085.53 1346.21 1083.52V1096.97H1338.59V1057.47H1345.66L1345.92 1060.27C1347.76 1058.05 1350.17 1056.94 1353.14 1056.94C1356.66 1056.94 1359.39 1058.24 1361.34 1060.85C1363.29 1063.45 1364.27 1067.03 1364.27 1071.6V1072ZM1356.65 1071.45C1356.65 1068.79 1356.18 1066.74 1355.23 1065.3C1354.29 1063.86 1352.93 1063.14 1351.14 1063.14C1348.75 1063.14 1347.11 1064.05 1346.21 1065.88V1077.56C1347.14 1079.44 1348.8 1080.38 1351.19 1080.38C1354.83 1080.38 1356.65 1077.4 1356.65 1071.45Z" fill="white"/>
<rect width="233" height="87" transform="translate(778 1242)" fill="#595959" fill-opacity="0.7"/>
<path d="M819.102 1296.09H805.232L802.596 1304H794.185L808.476 1265.61H815.806L830.176 1304H821.765L819.102 1296.09ZM807.368 1289.68H816.966L812.141 1275.31L807.368 1289.68ZM856.199 1297.65H872.995V1304H848.289V1265.61H856.199V1297.65ZM876.409 1289.47C876.409 1286.64 876.954 1284.12 878.044 1281.9C879.134 1279.69 880.698 1277.98 882.737 1276.76C884.794 1275.55 887.176 1274.94 889.883 1274.94C893.732 1274.94 896.87 1276.12 899.296 1278.48C901.739 1280.83 903.101 1284.03 903.383 1288.07L903.435 1290.03C903.435 1294.4 902.214 1297.92 899.77 1300.57C897.327 1303.21 894.049 1304.53 889.935 1304.53C885.822 1304.53 882.535 1303.21 880.074 1300.57C877.631 1297.94 876.409 1294.35 876.409 1289.81V1289.47ZM884.029 1290.03C884.029 1292.73 884.539 1294.81 885.558 1296.25C886.578 1297.67 888.037 1298.38 889.935 1298.38C891.781 1298.38 893.223 1297.68 894.26 1296.27C895.297 1294.85 895.815 1292.58 895.815 1289.47C895.815 1286.82 895.297 1284.76 894.26 1283.3C893.223 1281.84 891.764 1281.11 889.883 1281.11C888.019 1281.11 886.578 1281.84 885.558 1283.3C884.539 1284.74 884.029 1286.98 884.029 1290.03ZM934.377 1290C934.377 1294.57 933.401 1298.14 931.45 1300.7C929.499 1303.25 926.774 1304.53 923.276 1304.53C920.182 1304.53 917.713 1303.34 915.867 1300.97L915.524 1304H908.669V1263.5H916.289V1278.03C918.047 1275.97 920.358 1274.94 923.223 1274.94C926.704 1274.94 929.429 1276.23 931.397 1278.79C933.384 1281.34 934.377 1284.94 934.377 1289.58V1290ZM926.757 1289.45C926.757 1286.56 926.3 1284.46 925.386 1283.14C924.472 1281.81 923.109 1281.14 921.299 1281.14C918.873 1281.14 917.203 1282.13 916.289 1284.12V1295.38C917.221 1297.38 918.908 1298.38 921.351 1298.38C923.812 1298.38 925.43 1297.17 926.203 1294.75C926.572 1293.58 926.757 1291.82 926.757 1289.45ZM965.345 1290C965.345 1294.57 964.369 1298.14 962.418 1300.7C960.467 1303.25 957.742 1304.53 954.244 1304.53C951.15 1304.53 948.68 1303.34 946.835 1300.97L946.492 1304H939.637V1263.5H947.257V1278.03C949.014 1275.97 951.326 1274.94 954.191 1274.94C957.672 1274.94 960.396 1276.23 962.365 1278.79C964.351 1281.34 965.345 1284.94 965.345 1289.58V1290ZM957.724 1289.45C957.724 1286.56 957.267 1284.46 956.353 1283.14C955.439 1281.81 954.077 1281.14 952.266 1281.14C949.841 1281.14 948.171 1282.13 947.257 1284.12V1295.38C948.188 1297.38 949.876 1298.38 952.319 1298.38C954.78 1298.38 956.397 1297.17 957.171 1294.75C957.54 1293.58 957.724 1291.82 957.724 1289.45ZM980.94 1293.22L986.214 1275.47H994.387L982.918 1308.43L982.285 1309.93C980.58 1313.66 977.767 1315.52 973.847 1315.52C972.74 1315.52 971.615 1315.36 970.472 1315.02V1309.25L971.633 1309.27C973.074 1309.27 974.146 1309.05 974.849 1308.61C975.57 1308.17 976.133 1307.45 976.537 1306.43L977.433 1304.08L967.44 1275.47H975.64L980.94 1293.22Z" fill="white"/>
<rect width="206" height="87" transform="translate(178 1579)" fill="#595959" fill-opacity="0.7"/>
<path d="M219.102 1633.09H205.232L202.596 1641H194.185L208.476 1602.61H215.806L230.176 1641H221.765L219.102 1633.09ZM207.368 1626.68H216.966L212.141 1612.31L207.368 1626.68ZM278.189 1629.93L283.357 1602.61H291.241L282.725 1641H274.762L268.513 1615.32L262.264 1641H254.301L245.784 1602.61H253.668L258.862 1629.87L265.19 1602.61H271.888L278.189 1629.93ZM303.62 1641H295.974V1612.47H303.62V1641ZM295.525 1605.09C295.525 1603.95 295.903 1603 296.659 1602.27C297.433 1601.53 298.478 1601.16 299.797 1601.16C301.098 1601.16 302.135 1601.53 302.908 1602.27C303.682 1603 304.068 1603.95 304.068 1605.09C304.068 1606.25 303.673 1607.2 302.882 1607.94C302.108 1608.67 301.08 1609.04 299.797 1609.04C298.514 1609.04 297.476 1608.67 296.685 1607.94C295.912 1607.2 295.525 1606.25 295.525 1605.09ZM317.475 1612.47L317.713 1615.77C319.752 1613.22 322.485 1611.94 325.913 1611.94C328.936 1611.94 331.186 1612.83 332.663 1614.61C334.139 1616.38 334.895 1619.04 334.931 1622.57V1641H327.31V1622.75C327.31 1621.14 326.959 1619.97 326.256 1619.25C325.553 1618.51 324.384 1618.14 322.749 1618.14C320.604 1618.14 318.996 1619.05 317.924 1620.88V1641H310.304V1612.47H317.475ZM354.402 1641.53C350.219 1641.53 346.808 1640.24 344.172 1637.68C341.553 1635.11 340.243 1631.69 340.243 1627.42V1626.68C340.243 1623.82 340.797 1621.26 341.904 1619.01C343.012 1616.74 344.576 1615 346.597 1613.79C348.637 1612.56 350.957 1611.94 353.558 1611.94C357.461 1611.94 360.528 1613.17 362.761 1615.63C365.011 1618.1 366.136 1621.58 366.136 1626.1V1629.21H347.969C348.215 1631.08 348.953 1632.57 350.183 1633.7C351.431 1634.82 353.005 1635.38 354.903 1635.38C357.839 1635.38 360.133 1634.32 361.785 1632.19L365.529 1636.39C364.387 1638 362.84 1639.27 360.888 1640.18C358.937 1641.08 356.775 1641.53 354.402 1641.53ZM353.532 1618.11C352.02 1618.11 350.79 1618.62 349.841 1619.64C348.909 1620.66 348.311 1622.12 348.048 1624.02H358.647V1623.41C358.612 1621.73 358.155 1620.42 357.276 1619.51C356.397 1618.58 355.149 1618.11 353.532 1618.11Z" fill="white"/>
<rect width="206" height="87" transform="translate(648 1567)" fill="#595959" fill-opacity="0.7"/>
<path d="M689.102 1621.09H675.232L672.596 1629H664.185L678.476 1590.61H685.806L700.176 1629H691.765L689.102 1621.09ZM677.368 1614.68H686.966L682.141 1600.31L677.368 1614.68ZM728.625 1590.61L738.486 1618.45L748.295 1590.61H758.684V1629H750.747V1618.51L751.538 1600.39L741.176 1629H735.744L725.408 1600.42L726.199 1618.51V1629H718.289V1590.61H728.625ZM782.163 1629C781.811 1628.31 781.557 1627.46 781.398 1626.44C779.553 1628.5 777.153 1629.53 774.2 1629.53C771.405 1629.53 769.085 1628.72 767.239 1627.1C765.411 1625.48 764.497 1623.45 764.497 1620.98C764.497 1617.96 765.613 1615.64 767.846 1614.02C770.096 1612.41 773.339 1611.59 777.575 1611.57H781.082V1609.94C781.082 1608.62 780.739 1607.56 780.054 1606.77C779.386 1605.98 778.322 1605.59 776.863 1605.59C775.58 1605.59 774.569 1605.89 773.831 1606.51C773.11 1607.12 772.75 1607.97 772.75 1609.04H765.13C765.13 1607.39 765.64 1605.86 766.659 1604.45C767.679 1603.05 769.12 1601.95 770.983 1601.16C772.847 1600.35 774.938 1599.94 777.259 1599.94C780.774 1599.94 783.56 1600.83 785.617 1602.61C787.691 1604.36 788.728 1606.84 788.728 1610.04V1622.41C788.746 1625.12 789.124 1627.16 789.862 1628.55V1629H782.163ZM775.861 1623.7C776.986 1623.7 778.023 1623.45 778.973 1622.96C779.922 1622.45 780.625 1621.78 781.082 1620.93V1616.03H778.234C774.42 1616.03 772.39 1617.35 772.143 1619.98L772.117 1620.43C772.117 1621.38 772.451 1622.16 773.119 1622.78C773.787 1623.39 774.701 1623.7 775.861 1623.7ZM803.164 1629H795.517V1600.47H803.164V1629ZM795.069 1593.09C795.069 1591.95 795.447 1591 796.203 1590.27C796.976 1589.53 798.022 1589.16 799.341 1589.16C800.641 1589.16 801.679 1589.53 802.452 1590.27C803.225 1591 803.612 1591.95 803.612 1593.09C803.612 1594.25 803.217 1595.2 802.426 1595.94C801.652 1596.67 800.624 1597.04 799.341 1597.04C798.057 1597.04 797.02 1596.67 796.229 1595.94C795.456 1595.2 795.069 1594.25 795.069 1593.09ZM817.019 1600.47L817.257 1603.77C819.296 1601.22 822.029 1599.94 825.457 1599.94C828.48 1599.94 830.73 1600.83 832.207 1602.61C833.683 1604.38 834.439 1607.04 834.474 1610.57V1629H826.854V1610.75C826.854 1609.14 826.503 1607.97 825.8 1607.25C825.096 1606.51 823.928 1606.14 822.293 1606.14C820.148 1606.14 818.54 1607.05 817.468 1608.88V1629H809.847V1600.47H817.019Z" fill="white"/>
<rect width="180" height="87" transform="translate(452 1970)" fill="#595959" fill-opacity="0.7"/>
<path d="M493.102 2024.09H479.232L476.596 2032H468.185L482.476 1993.61H489.806L504.176 2032H495.765L493.102 2024.09ZM481.368 2017.68H490.966L486.141 2003.31L481.368 2017.68ZM542.196 2021.93C542.196 2020.43 541.669 2019.29 540.614 2018.5C539.559 2017.69 537.661 2016.85 534.919 2015.97C532.177 2015.07 530.006 2014.19 528.406 2013.33C524.047 2010.98 521.867 2007.8 521.867 2003.81C521.867 2001.74 522.447 1999.89 523.607 1998.28C524.785 1996.64 526.464 1995.37 528.643 1994.45C530.841 1993.54 533.302 1993.08 536.026 1993.08C538.768 1993.08 541.212 1993.58 543.356 1994.58C545.501 1995.57 547.162 1996.97 548.34 1998.78C549.535 2000.59 550.133 2002.64 550.133 2004.95H542.223C542.223 2003.19 541.669 2001.83 540.561 2000.86C539.454 1999.88 537.898 1999.38 535.894 1999.38C533.961 1999.38 532.458 1999.8 531.386 2000.62C530.313 2001.43 529.777 2002.5 529.777 2003.84C529.777 2005.09 530.401 2006.13 531.649 2006.98C532.915 2007.82 534.769 2008.61 537.213 2009.35C541.713 2010.7 544.991 2012.38 547.048 2014.39C549.104 2016.39 550.133 2018.89 550.133 2021.88C550.133 2025.2 548.876 2027.81 546.362 2029.71C543.849 2031.59 540.465 2032.53 536.211 2032.53C533.258 2032.53 530.568 2031.99 528.143 2030.92C525.717 2029.83 523.862 2028.34 522.579 2026.46C521.313 2024.58 520.681 2022.4 520.681 2019.92H528.617C528.617 2024.16 531.148 2026.28 536.211 2026.28C538.092 2026.28 539.559 2025.9 540.614 2025.14C541.669 2024.37 542.196 2023.3 542.196 2021.93ZM563.593 2032H555.946V2003.47H563.593V2032ZM555.498 1996.09C555.498 1994.95 555.876 1994 556.632 1993.27C557.405 1992.53 558.451 1992.16 559.769 1992.16C561.07 1992.16 562.107 1992.53 562.881 1993.27C563.654 1994 564.041 1994.95 564.041 1996.09C564.041 1997.25 563.645 1998.2 562.854 1998.94C562.081 1999.67 561.053 2000.04 559.769 2000.04C558.486 2000.04 557.449 1999.67 556.658 1998.94C555.885 1998.2 555.498 1997.25 555.498 1996.09ZM579.557 1996.46V2003.47H584.435V2009.06H579.557V2023.3C579.557 2024.35 579.76 2025.11 580.164 2025.57C580.568 2026.02 581.342 2026.25 582.484 2026.25C583.328 2026.25 584.075 2026.19 584.725 2026.07V2031.84C583.231 2032.3 581.693 2032.53 580.111 2032.53C574.767 2032.53 572.043 2029.83 571.937 2024.43V2009.06H567.771V2003.47H571.937V1996.46H579.557ZM602.351 2032.53C598.168 2032.53 594.758 2031.24 592.121 2028.68C589.502 2026.11 588.192 2022.69 588.192 2018.42V2017.68C588.192 2014.82 588.746 2012.26 589.853 2010.01C590.961 2007.74 592.525 2006 594.547 2004.79C596.586 2003.56 598.906 2002.94 601.508 2002.94C605.41 2002.94 608.477 2004.17 610.71 2006.63C612.96 2009.1 614.085 2012.58 614.085 2017.1V2020.21H595.918C596.164 2022.08 596.902 2023.57 598.133 2024.7C599.381 2025.82 600.954 2026.38 602.852 2026.38C605.788 2026.38 608.082 2025.32 609.734 2023.19L613.478 2027.39C612.336 2029 610.789 2030.27 608.838 2031.18C606.887 2032.08 604.724 2032.53 602.351 2032.53ZM601.481 2009.11C599.97 2009.11 598.739 2009.62 597.79 2010.64C596.858 2011.66 596.261 2013.12 595.997 2015.02H606.596V2014.41C606.561 2012.73 606.104 2011.42 605.225 2010.51C604.346 2009.58 603.098 2009.11 601.481 2009.11Z" fill="white"/>
<rect width="264" height="87" transform="translate(438 2274)" fill="#595959" fill-opacity="0.7"/>
<path d="M479.102 2328.09H465.232L462.596 2336H454.185L468.476 2297.61H475.806L490.176 2336H481.765L479.102 2328.09ZM467.368 2321.68H476.966L472.141 2307.31L467.368 2321.68ZM522.501 2321.95H516.199V2336H508.289V2297.61H522.554C527.089 2297.61 530.587 2298.62 533.048 2300.64C535.509 2302.66 536.739 2305.52 536.739 2309.21C536.739 2311.83 536.168 2314.02 535.025 2315.78C533.9 2317.52 532.186 2318.91 529.884 2319.94L538.189 2335.63V2336H529.699L522.501 2321.95ZM516.199 2315.54H522.58C524.566 2315.54 526.104 2315.04 527.194 2314.04C528.284 2313.02 528.829 2311.62 528.829 2309.84C528.829 2308.03 528.31 2306.61 527.273 2305.57C526.254 2304.54 524.681 2304.02 522.554 2304.02H516.199V2315.54ZM559.349 2336C558.997 2335.31 558.742 2334.46 558.584 2333.44C556.738 2335.5 554.339 2336.53 551.386 2336.53C548.591 2336.53 546.27 2335.72 544.425 2334.1C542.597 2332.48 541.683 2330.45 541.683 2327.98C541.683 2324.96 542.799 2322.64 545.031 2321.02C547.281 2319.41 550.524 2318.59 554.761 2318.57H558.267V2316.94C558.267 2315.62 557.925 2314.56 557.239 2313.77C556.571 2312.98 555.508 2312.59 554.049 2312.59C552.766 2312.59 551.755 2312.89 551.016 2313.51C550.296 2314.12 549.935 2314.97 549.935 2316.04H542.315C542.315 2314.39 542.825 2312.86 543.845 2311.45C544.864 2310.05 546.306 2308.95 548.169 2308.16C550.032 2307.35 552.124 2306.94 554.444 2306.94C557.96 2306.94 560.746 2307.83 562.803 2309.61C564.877 2311.36 565.914 2313.84 565.914 2317.04V2329.41C565.932 2332.12 566.309 2334.16 567.048 2335.55V2336H559.349ZM553.047 2330.7C554.172 2330.7 555.209 2330.45 556.158 2329.96C557.107 2329.45 557.81 2328.78 558.267 2327.93V2323.03H555.42C551.605 2323.03 549.575 2324.35 549.329 2326.98L549.303 2327.43C549.303 2328.38 549.637 2329.16 550.305 2329.78C550.973 2330.39 551.887 2330.7 553.047 2330.7ZM574.39 2336V2313.06H570.145V2307.47H574.39V2305.04C574.39 2301.85 575.305 2299.37 577.133 2297.61C578.978 2295.83 581.554 2294.95 584.858 2294.95C585.913 2294.95 587.205 2295.12 588.734 2295.47L588.655 2301.38C588.022 2301.22 587.249 2301.14 586.335 2301.14C583.47 2301.14 582.037 2302.49 582.037 2305.18V2307.47H587.706V2313.06H582.037V2336H574.39ZM601.324 2300.46V2307.47H606.202V2313.06H601.324V2327.3C601.324 2328.35 601.526 2329.11 601.93 2329.57C602.335 2330.02 603.108 2330.25 604.251 2330.25C605.095 2330.25 605.842 2330.19 606.492 2330.07V2335.84C604.998 2336.3 603.46 2336.53 601.878 2336.53C596.534 2336.53 593.809 2333.83 593.704 2328.43V2313.06H589.538V2307.47H593.704V2300.46H601.324ZM624.118 2336.53C619.934 2336.53 616.524 2335.24 613.887 2332.68C611.268 2330.11 609.959 2326.69 609.959 2322.42V2321.68C609.959 2318.82 610.512 2316.26 611.62 2314.01C612.727 2311.74 614.292 2310 616.313 2308.79C618.352 2307.56 620.673 2306.94 623.274 2306.94C627.177 2306.94 630.244 2308.17 632.476 2310.63C634.726 2313.1 635.851 2316.58 635.851 2321.1V2324.21H617.684C617.93 2326.08 618.669 2327.57 619.899 2328.7C621.147 2329.82 622.72 2330.38 624.619 2330.38C627.554 2330.38 629.848 2329.32 631.501 2327.19L635.245 2331.39C634.102 2333 632.555 2334.27 630.604 2335.18C628.653 2336.08 626.491 2336.53 624.118 2336.53ZM623.248 2313.11C621.736 2313.11 620.506 2313.62 619.556 2314.64C618.625 2315.66 618.027 2317.12 617.763 2319.02H628.363V2318.41C628.328 2316.73 627.871 2315.42 626.992 2314.51C626.113 2313.58 624.865 2313.11 623.248 2313.11ZM656.773 2314.62C655.736 2314.48 654.822 2314.41 654.031 2314.41C651.148 2314.41 649.259 2315.38 648.362 2317.33V2336H640.742V2307.47H647.94L648.151 2310.87C649.68 2308.25 651.799 2306.94 654.506 2306.94C655.349 2306.94 656.14 2307.06 656.879 2307.29L656.773 2314.62ZM676.456 2328.12C676.456 2327.18 675.99 2326.46 675.058 2325.93C674.144 2325.38 672.668 2324.9 670.629 2324.48C663.843 2323.05 660.451 2320.17 660.451 2315.83C660.451 2313.3 661.497 2311.19 663.589 2309.5C665.698 2307.8 668.449 2306.94 671.841 2306.94C675.463 2306.94 678.354 2307.8 680.516 2309.5C682.696 2311.21 683.786 2313.42 683.786 2316.15H676.166C676.166 2315.06 675.814 2314.16 675.111 2313.46C674.408 2312.74 673.309 2312.38 671.815 2312.38C670.532 2312.38 669.539 2312.67 668.836 2313.25C668.133 2313.83 667.781 2314.56 667.781 2315.46C667.781 2316.3 668.176 2316.99 668.967 2317.52C669.776 2318.03 671.13 2318.47 673.028 2318.86C674.926 2319.23 676.526 2319.65 677.827 2320.13C681.852 2321.6 683.865 2324.16 683.865 2327.8C683.865 2330.4 682.749 2332.51 680.516 2334.13C678.284 2335.73 675.401 2336.53 671.868 2336.53C669.477 2336.53 667.35 2336.11 665.487 2335.26C663.641 2334.4 662.191 2333.23 661.136 2331.75C660.082 2330.26 659.554 2328.65 659.554 2326.93H666.779C666.849 2328.28 667.35 2329.32 668.282 2330.04C669.214 2330.76 670.462 2331.12 672.026 2331.12C673.485 2331.12 674.584 2330.85 675.322 2330.3C676.078 2329.74 676.456 2329.01 676.456 2328.12Z" fill="white"/>
<rect width="279" height="87" transform="translate(837 2297)" fill="#595959" fill-opacity="0.7"/>
<path d="M878.102 2351.09H864.232L861.596 2359H853.185L867.476 2320.61H874.806L889.176 2359H880.765L878.102 2351.09ZM866.368 2344.68H875.966L871.141 2330.31L866.368 2344.68ZM937.189 2347.93L942.357 2320.61H950.241L941.725 2359H933.762L927.513 2333.32L921.264 2359H913.301L904.784 2320.61H912.668L917.862 2347.87L924.19 2320.61H930.888L937.189 2347.93ZM962.62 2359H954.974V2330.47H962.62V2359ZM954.525 2323.09C954.525 2321.95 954.903 2321 955.659 2320.27C956.433 2319.53 957.478 2319.16 958.797 2319.16C960.098 2319.16 961.135 2319.53 961.908 2320.27C962.682 2321 963.068 2321.95 963.068 2323.09C963.068 2324.25 962.673 2325.2 961.882 2325.94C961.108 2326.67 960.08 2327.04 958.797 2327.04C957.514 2327.04 956.476 2326.67 955.685 2325.94C954.912 2325.2 954.525 2324.25 954.525 2323.09ZM976.475 2330.47L976.713 2333.77C978.752 2331.22 981.485 2329.94 984.913 2329.94C987.936 2329.94 990.186 2330.83 991.663 2332.61C993.139 2334.38 993.895 2337.04 993.931 2340.57V2359H986.31V2340.75C986.31 2339.14 985.959 2337.97 985.256 2337.25C984.553 2336.51 983.384 2336.14 981.749 2336.14C979.604 2336.14 977.996 2337.05 976.924 2338.88V2359H969.304V2330.47H976.475ZM999.085 2344.52C999.085 2340.08 1000.08 2336.54 1002.06 2333.9C1004.07 2331.26 1006.8 2329.94 1010.26 2329.94C1013.04 2329.94 1015.34 2330.98 1017.15 2333.05V2318.5H1024.79V2359H1017.91L1017.54 2355.97C1015.64 2358.34 1013.2 2359.53 1010.21 2359.53C1006.85 2359.53 1004.16 2358.21 1002.12 2355.57C1000.1 2352.92 999.085 2349.24 999.085 2344.52ZM1006.7 2345.08C1006.7 2347.75 1007.17 2349.8 1008.1 2351.22C1009.03 2352.65 1010.39 2353.36 1012.16 2353.36C1014.52 2353.36 1016.18 2352.36 1017.15 2350.38V2339.12C1016.2 2337.13 1014.55 2336.14 1012.22 2336.14C1008.54 2336.14 1006.7 2339.12 1006.7 2345.08ZM1030.05 2344.47C1030.05 2341.64 1030.6 2339.12 1031.69 2336.9C1032.78 2334.69 1034.34 2332.98 1036.38 2331.76C1038.44 2330.55 1040.82 2329.94 1043.53 2329.94C1047.38 2329.94 1050.51 2331.12 1052.94 2333.48C1055.38 2335.83 1056.74 2339.03 1057.03 2343.07L1057.08 2345.03C1057.08 2349.4 1055.86 2352.92 1053.41 2355.57C1050.97 2358.21 1047.69 2359.53 1043.58 2359.53C1039.47 2359.53 1036.18 2358.21 1033.72 2355.57C1031.27 2352.94 1030.05 2349.35 1030.05 2344.81V2344.47ZM1037.67 2345.03C1037.67 2347.73 1038.18 2349.81 1039.2 2351.25C1040.22 2352.67 1041.68 2353.38 1043.58 2353.38C1045.42 2353.38 1046.87 2352.68 1047.9 2351.27C1048.94 2349.85 1049.46 2347.58 1049.46 2344.47C1049.46 2341.82 1048.94 2339.76 1047.9 2338.3C1046.87 2336.84 1045.41 2336.11 1043.53 2336.11C1041.66 2336.11 1040.22 2336.84 1039.2 2338.3C1038.18 2339.74 1037.67 2341.98 1037.67 2345.03ZM1087.12 2348.64L1090.87 2330.47H1098.22L1090.95 2359H1084.57L1079.16 2341.04L1073.76 2359H1067.4L1060.12 2330.47H1067.48L1071.2 2348.61L1076.42 2330.47H1081.93L1087.12 2348.64Z" fill="white"/>
<rect width="261" height="87" transform="translate(1075 2193)" fill="#595959" fill-opacity="0.7"/>
<path d="M1116.1 2247.09H1102.23L1099.6 2255H1091.18L1105.48 2216.61H1112.81L1127.18 2255H1118.76L1116.1 2247.09ZM1104.37 2240.68H1113.97L1109.14 2226.31L1104.37 2240.68ZM1175.66 2250.15C1174.24 2251.85 1172.23 2253.18 1169.63 2254.13C1167.02 2255.06 1164.14 2255.53 1160.98 2255.53C1157.66 2255.53 1154.74 2254.81 1152.22 2253.37C1149.73 2251.91 1147.79 2249.8 1146.42 2247.04C1145.07 2244.28 1144.37 2241.03 1144.34 2237.31V2234.7C1144.34 2230.87 1144.98 2227.55 1146.26 2224.76C1147.57 2221.94 1149.43 2219.8 1151.85 2218.32C1154.3 2216.83 1157.15 2216.08 1160.42 2216.08C1164.98 2216.08 1168.54 2217.17 1171.1 2219.35C1173.67 2221.51 1175.19 2224.67 1175.66 2228.82H1167.96C1167.61 2226.62 1166.83 2225.01 1165.62 2223.99C1164.42 2222.97 1162.77 2222.46 1160.66 2222.46C1157.97 2222.46 1155.92 2223.47 1154.52 2225.5C1153.11 2227.52 1152.4 2230.52 1152.38 2234.51V2236.96C1152.38 2240.99 1153.15 2244.03 1154.68 2246.09C1156.21 2248.14 1158.45 2249.17 1161.4 2249.17C1164.37 2249.17 1166.49 2248.54 1167.75 2247.27V2240.66H1160.56V2234.83H1175.66V2250.15ZM1198.67 2255C1198.32 2254.31 1198.06 2253.46 1197.9 2252.44C1196.06 2254.5 1193.66 2255.53 1190.71 2255.53C1187.91 2255.53 1185.59 2254.72 1183.75 2253.1C1181.92 2251.48 1181 2249.45 1181 2246.98C1181 2243.96 1182.12 2241.64 1184.35 2240.02C1186.6 2238.41 1189.84 2237.59 1194.08 2237.57H1197.59V2235.94C1197.59 2234.62 1197.25 2233.56 1196.56 2232.77C1195.89 2231.98 1194.83 2231.59 1193.37 2231.59C1192.09 2231.59 1191.08 2231.89 1190.34 2232.51C1189.62 2233.12 1189.26 2233.97 1189.26 2235.04H1181.64C1181.64 2233.39 1182.15 2231.86 1183.16 2230.45C1184.18 2229.05 1185.63 2227.95 1187.49 2227.16C1189.35 2226.35 1191.44 2225.94 1193.76 2225.94C1197.28 2225.94 1200.07 2226.83 1202.12 2228.61C1204.2 2230.36 1205.23 2232.84 1205.23 2236.04V2248.41C1205.25 2251.12 1205.63 2253.16 1206.37 2254.55V2255H1198.67ZM1192.37 2249.7C1193.49 2249.7 1194.53 2249.45 1195.48 2248.96C1196.43 2248.45 1197.13 2247.78 1197.59 2246.93V2242.03H1194.74C1190.93 2242.03 1188.9 2243.35 1188.65 2245.98L1188.62 2246.43C1188.62 2247.38 1188.96 2248.16 1189.62 2248.78C1190.29 2249.39 1191.21 2249.7 1192.37 2249.7ZM1227.66 2233.62C1226.62 2233.48 1225.71 2233.41 1224.92 2233.41C1222.03 2233.41 1220.14 2234.38 1219.25 2236.33V2255H1211.63V2226.47H1218.83L1219.04 2229.87C1220.57 2227.25 1222.68 2225.94 1225.39 2225.94C1226.24 2225.94 1227.03 2226.06 1227.76 2226.29L1227.66 2233.62ZM1230.18 2240.52C1230.18 2236.08 1231.17 2232.54 1233.16 2229.9C1235.16 2227.26 1237.89 2225.94 1241.36 2225.94C1244.13 2225.94 1246.43 2226.98 1248.24 2229.05V2214.5H1255.88V2255H1249L1248.63 2251.97C1246.74 2254.34 1244.29 2255.53 1241.3 2255.53C1237.95 2255.53 1235.25 2254.21 1233.21 2251.57C1231.19 2248.92 1230.18 2245.24 1230.18 2240.52ZM1237.8 2241.08C1237.8 2243.75 1238.26 2245.8 1239.19 2247.22C1240.13 2248.65 1241.48 2249.36 1243.25 2249.36C1245.61 2249.36 1247.27 2248.36 1248.24 2246.38V2235.12C1247.29 2233.13 1245.65 2232.14 1243.31 2232.14C1239.63 2232.14 1237.8 2235.12 1237.8 2241.08ZM1275.46 2255.53C1271.28 2255.53 1267.87 2254.24 1265.23 2251.68C1262.61 2249.11 1261.3 2245.69 1261.3 2241.42V2240.68C1261.3 2237.82 1261.86 2235.26 1262.96 2233.01C1264.07 2230.74 1265.64 2229 1267.66 2227.79C1269.7 2226.56 1272.02 2225.94 1274.62 2225.94C1278.52 2225.94 1281.59 2227.17 1283.82 2229.63C1286.07 2232.1 1287.2 2235.58 1287.2 2240.1V2243.21H1269.03C1269.27 2245.08 1270.01 2246.57 1271.24 2247.7C1272.49 2248.82 1274.06 2249.38 1275.96 2249.38C1278.9 2249.38 1281.19 2248.32 1282.84 2246.19L1286.59 2250.39C1285.45 2252 1283.9 2253.27 1281.95 2254.18C1280 2255.08 1277.83 2255.53 1275.46 2255.53ZM1274.59 2232.11C1273.08 2232.11 1271.85 2232.62 1270.9 2233.64C1269.97 2234.66 1269.37 2236.12 1269.11 2238.02H1279.71V2237.41C1279.67 2235.73 1279.21 2234.42 1278.34 2233.51C1277.46 2232.58 1276.21 2232.11 1274.59 2232.11ZM1299.1 2226.47L1299.34 2229.77C1301.38 2227.22 1304.11 2225.94 1307.54 2225.94C1310.56 2225.94 1312.81 2226.83 1314.29 2228.61C1315.76 2230.38 1316.52 2233.04 1316.55 2236.57V2255H1308.93V2236.75C1308.93 2235.14 1308.58 2233.97 1307.88 2233.25C1307.18 2232.51 1306.01 2232.14 1304.37 2232.14C1302.23 2232.14 1300.62 2233.05 1299.55 2234.88V2255H1291.93V2226.47H1299.1Z" fill="white"/>
<rect width="188" height="87" transform="translate(928 1836)" fill="#595959" fill-opacity="0.7"/>
<path d="M969.102 1890.09H955.232L952.596 1898H944.185L958.476 1859.61H965.806L980.176 1898H971.765L969.102 1890.09ZM957.368 1883.68H966.966L962.141 1869.31L957.368 1883.68ZM1006.2 1891.65H1023V1898H998.289V1859.61H1006.2V1891.65ZM1035.64 1898H1027.99V1869.47H1035.64V1898ZM1027.54 1862.09C1027.54 1860.95 1027.92 1860 1028.68 1859.27C1029.45 1858.53 1030.5 1858.16 1031.81 1858.16C1033.12 1858.16 1034.15 1858.53 1034.93 1859.27C1035.7 1860 1036.09 1860.95 1036.09 1862.09C1036.09 1863.25 1035.69 1864.2 1034.9 1864.94C1034.13 1865.67 1033.1 1866.04 1031.81 1866.04C1030.53 1866.04 1029.49 1865.67 1028.7 1864.94C1027.93 1864.2 1027.54 1863.25 1027.54 1862.09ZM1049.49 1869.47L1049.73 1872.77C1051.77 1870.22 1054.5 1868.94 1057.93 1868.94C1060.95 1868.94 1063.2 1869.83 1064.68 1871.61C1066.16 1873.38 1066.91 1876.04 1066.95 1879.57V1898H1059.33V1879.75C1059.33 1878.14 1058.98 1876.97 1058.27 1876.25C1057.57 1875.51 1056.4 1875.14 1054.77 1875.14C1052.62 1875.14 1051.01 1876.05 1049.94 1877.88V1898H1042.32V1869.47H1049.49ZM1083.65 1886.56L1080.91 1889.3V1898H1073.29V1857.5H1080.91V1879.94L1082.39 1878.04L1089.69 1869.47H1098.84L1088.53 1881.36L1099.74 1898H1090.98L1083.65 1886.56Z" fill="white"/>
<rect width="296" height="87" transform="translate(1006 1666)" fill="#595959" fill-opacity="0.7"/>
<path d="M1035.76 1689.61L1045.62 1717.45L1055.43 1689.61H1065.82V1728H1057.89V1717.51L1058.68 1699.39L1048.31 1728H1042.88L1032.55 1699.42L1033.34 1717.51V1728H1025.43V1689.61H1035.76ZM1080.81 1728H1073.17V1699.47H1080.81V1728ZM1072.72 1692.09C1072.72 1690.95 1073.09 1690 1073.85 1689.27C1074.62 1688.53 1075.67 1688.16 1076.99 1688.16C1078.29 1688.16 1079.33 1688.53 1080.1 1689.27C1080.87 1690 1081.26 1690.95 1081.26 1692.09C1081.26 1693.25 1080.86 1694.2 1080.07 1694.94C1079.3 1695.67 1078.27 1696.04 1076.99 1696.04C1075.71 1696.04 1074.67 1695.67 1073.88 1694.94C1073.1 1694.2 1072.72 1693.25 1072.72 1692.09ZM1086.47 1713.52C1086.47 1709.08 1087.46 1705.54 1089.45 1702.9C1091.45 1700.26 1094.18 1698.94 1097.65 1698.94C1100.42 1698.94 1102.72 1699.98 1104.53 1702.05V1687.5H1112.17V1728H1105.29L1104.92 1724.97C1103.03 1727.34 1100.58 1728.53 1097.59 1728.53C1094.24 1728.53 1091.54 1727.21 1089.5 1724.57C1087.48 1721.92 1086.47 1718.24 1086.47 1713.52ZM1094.09 1714.08C1094.09 1716.75 1094.55 1718.8 1095.48 1720.22C1096.42 1721.65 1097.77 1722.36 1099.54 1722.36C1101.9 1722.36 1103.56 1721.36 1104.53 1719.38V1708.12C1103.58 1706.13 1101.94 1705.14 1099.6 1705.14C1095.92 1705.14 1094.09 1708.12 1094.09 1714.08ZM1163.25 1715.21C1162.95 1719.34 1161.42 1722.59 1158.66 1724.97C1155.92 1727.34 1152.3 1728.53 1147.8 1728.53C1142.87 1728.53 1139 1726.88 1136.17 1723.57C1133.36 1720.25 1131.95 1715.7 1131.95 1709.91V1707.57C1131.95 1703.87 1132.6 1700.62 1133.9 1697.81C1135.2 1695 1137.06 1692.84 1139.46 1691.35C1141.89 1689.84 1144.7 1689.08 1147.9 1689.08C1152.33 1689.08 1155.9 1690.27 1158.61 1692.64C1161.31 1695.01 1162.88 1698.35 1163.3 1702.63H1155.39C1155.2 1700.16 1154.5 1698.36 1153.31 1697.26C1152.13 1696.13 1150.33 1695.57 1147.9 1695.57C1145.26 1695.57 1143.29 1696.52 1141.97 1698.42C1140.67 1700.3 1140 1703.22 1139.96 1707.2V1710.1C1139.96 1714.25 1140.59 1717.28 1141.84 1719.19C1143.1 1721.11 1145.09 1722.07 1147.8 1722.07C1150.24 1722.07 1152.06 1721.51 1153.25 1720.41C1154.47 1719.28 1155.16 1717.55 1155.34 1715.21H1163.25ZM1185.57 1725.1C1183.69 1727.38 1181.08 1728.53 1177.76 1728.53C1174.7 1728.53 1172.37 1727.65 1170.75 1725.89C1169.15 1724.13 1168.33 1721.56 1168.3 1718.17V1699.47H1175.92V1717.9C1175.92 1720.87 1177.27 1722.36 1179.98 1722.36C1182.56 1722.36 1184.34 1721.46 1185.3 1719.67V1699.47H1192.95V1728H1185.78L1185.57 1725.1ZM1224.95 1714C1224.95 1718.57 1223.97 1722.14 1222.02 1724.7C1220.07 1727.25 1217.34 1728.53 1213.84 1728.53C1210.75 1728.53 1208.28 1727.34 1206.44 1724.97L1206.09 1728H1199.24V1687.5H1206.86V1702.03C1208.62 1699.97 1210.93 1698.94 1213.79 1698.94C1217.27 1698.94 1220 1700.23 1221.97 1702.79C1223.95 1705.34 1224.95 1708.94 1224.95 1713.58V1714ZM1217.32 1713.45C1217.32 1710.56 1216.87 1708.46 1215.95 1707.14C1215.04 1705.81 1213.68 1705.14 1211.87 1705.14C1209.44 1705.14 1207.77 1706.13 1206.86 1708.12V1719.38C1207.79 1721.38 1209.48 1722.38 1211.92 1722.38C1214.38 1722.38 1216 1721.17 1216.77 1718.75C1217.14 1717.58 1217.32 1715.82 1217.32 1713.45ZM1255.91 1714C1255.91 1718.57 1254.94 1722.14 1252.99 1724.7C1251.03 1727.25 1248.31 1728.53 1244.81 1728.53C1241.72 1728.53 1239.25 1727.34 1237.4 1724.97L1237.06 1728H1230.2V1687.5H1237.82V1702.03C1239.58 1699.97 1241.89 1698.94 1244.76 1698.94C1248.24 1698.94 1250.96 1700.23 1252.93 1702.79C1254.92 1705.34 1255.91 1708.94 1255.91 1713.58V1714ZM1248.29 1713.45C1248.29 1710.56 1247.84 1708.46 1246.92 1707.14C1246.01 1705.81 1244.65 1705.14 1242.83 1705.14C1240.41 1705.14 1238.74 1706.13 1237.82 1708.12V1719.38C1238.76 1721.38 1240.44 1722.38 1242.89 1722.38C1245.35 1722.38 1246.97 1721.17 1247.74 1718.75C1248.11 1717.58 1248.29 1715.82 1248.29 1713.45ZM1271.51 1717.22L1276.78 1699.47H1284.96L1273.49 1732.43L1272.85 1733.93C1271.15 1737.66 1268.34 1739.52 1264.42 1739.52C1263.31 1739.52 1262.18 1739.36 1261.04 1739.02V1733.25L1262.2 1733.27C1263.64 1733.27 1264.71 1733.05 1265.42 1732.61C1266.14 1732.17 1266.7 1731.45 1267.11 1730.43L1268 1728.08L1258.01 1699.47H1266.21L1271.51 1717.22Z" fill="white"/>
<rect width="338" height="87" transform="translate(1208 1424)" fill="#595959" fill-opacity="0.7"/>
<path d="M1237.76 1447.61L1247.62 1475.45L1257.43 1447.61H1267.82V1486H1259.89V1475.51L1260.68 1457.39L1250.31 1486H1244.88L1234.55 1457.42L1235.34 1475.51V1486H1227.43V1447.61H1237.76ZM1282.81 1486H1275.17V1457.47H1282.81V1486ZM1274.72 1450.09C1274.72 1448.95 1275.09 1448 1275.85 1447.27C1276.62 1446.53 1277.67 1446.16 1278.99 1446.16C1280.29 1446.16 1281.33 1446.53 1282.1 1447.27C1282.87 1448 1283.26 1448.95 1283.26 1450.09C1283.26 1451.25 1282.86 1452.2 1282.07 1452.94C1281.3 1453.67 1280.27 1454.04 1278.99 1454.04C1277.71 1454.04 1276.67 1453.67 1275.88 1452.94C1275.1 1452.2 1274.72 1451.25 1274.72 1450.09ZM1288.47 1471.52C1288.47 1467.08 1289.46 1463.54 1291.45 1460.9C1293.45 1458.26 1296.18 1456.94 1299.65 1456.94C1302.42 1456.94 1304.72 1457.98 1306.53 1460.05V1445.5H1314.17V1486H1307.29L1306.92 1482.97C1305.03 1485.34 1302.58 1486.53 1299.59 1486.53C1296.24 1486.53 1293.54 1485.21 1291.5 1482.57C1289.48 1479.92 1288.47 1476.24 1288.47 1471.52ZM1296.09 1472.08C1296.09 1474.75 1296.55 1476.8 1297.48 1478.22C1298.42 1479.65 1299.77 1480.36 1301.54 1480.36C1303.9 1480.36 1305.56 1479.36 1306.53 1477.38V1466.12C1305.58 1464.13 1303.94 1463.14 1301.6 1463.14C1297.92 1463.14 1296.09 1466.12 1296.09 1472.08ZM1365.25 1473.21C1364.95 1477.34 1363.42 1480.59 1360.66 1482.97C1357.92 1485.34 1354.3 1486.53 1349.8 1486.53C1344.87 1486.53 1341 1484.88 1338.17 1481.57C1335.36 1478.25 1333.95 1473.7 1333.95 1467.91V1465.57C1333.95 1461.87 1334.6 1458.62 1335.9 1455.81C1337.2 1453 1339.06 1450.84 1341.46 1449.35C1343.89 1447.84 1346.7 1447.08 1349.9 1447.08C1354.33 1447.08 1357.9 1448.27 1360.61 1450.64C1363.31 1453.01 1364.88 1456.35 1365.3 1460.63H1357.39C1357.2 1458.16 1356.5 1456.36 1355.31 1455.26C1354.13 1454.13 1352.33 1453.57 1349.9 1453.57C1347.26 1453.57 1345.29 1454.52 1343.97 1456.42C1342.67 1458.3 1342 1461.22 1341.96 1465.2V1468.1C1341.96 1472.25 1342.59 1475.28 1343.84 1477.19C1345.1 1479.11 1347.09 1480.07 1349.8 1480.07C1352.24 1480.07 1354.06 1479.51 1355.25 1478.41C1356.47 1477.28 1357.16 1475.55 1357.34 1473.21H1365.25ZM1387.01 1486C1386.66 1485.31 1386.41 1484.46 1386.25 1483.44C1384.4 1485.5 1382 1486.53 1379.05 1486.53C1376.25 1486.53 1373.93 1485.72 1372.09 1484.1C1370.26 1482.48 1369.35 1480.45 1369.35 1477.98C1369.35 1474.96 1370.46 1472.64 1372.7 1471.02C1374.95 1469.41 1378.19 1468.59 1382.42 1468.57H1385.93V1466.94C1385.93 1465.62 1385.59 1464.56 1384.9 1463.77C1384.24 1462.98 1383.17 1462.59 1381.71 1462.59C1380.43 1462.59 1379.42 1462.89 1378.68 1463.51C1377.96 1464.12 1377.6 1464.97 1377.6 1466.04H1369.98C1369.98 1464.39 1370.49 1462.86 1371.51 1461.45C1372.53 1460.05 1373.97 1458.95 1375.83 1458.16C1377.7 1457.35 1379.79 1456.94 1382.11 1456.94C1385.62 1456.94 1388.41 1457.83 1390.47 1459.61C1392.54 1461.36 1393.58 1463.84 1393.58 1467.04V1479.41C1393.6 1482.12 1393.97 1484.16 1394.71 1485.55V1486H1387.01ZM1380.71 1480.7C1381.84 1480.7 1382.87 1480.45 1383.82 1479.96C1384.77 1479.45 1385.47 1478.78 1385.93 1477.93V1473.03H1383.08C1379.27 1473.03 1377.24 1474.35 1376.99 1476.98L1376.97 1477.43C1376.97 1478.38 1377.3 1479.16 1377.97 1479.78C1378.64 1480.39 1379.55 1480.7 1380.71 1480.7ZM1409.09 1450.46V1457.47H1413.97V1463.06H1409.09V1477.3C1409.09 1478.35 1409.3 1479.11 1409.7 1479.57C1410.11 1480.02 1410.88 1480.25 1412.02 1480.25C1412.87 1480.25 1413.61 1480.19 1414.26 1480.07V1485.84C1412.77 1486.3 1411.23 1486.53 1409.65 1486.53C1404.3 1486.53 1401.58 1483.83 1401.47 1478.43V1463.06H1397.31V1457.47H1401.47V1450.46H1409.09ZM1443.57 1475.64L1447.31 1457.47H1454.67L1447.39 1486H1441.01L1435.61 1468.04L1430.2 1486H1423.85L1416.57 1457.47H1423.93L1427.64 1475.61L1432.86 1457.47H1438.37L1443.57 1475.64ZM1475.54 1486C1475.19 1485.31 1474.93 1484.46 1474.77 1483.44C1472.93 1485.5 1470.53 1486.53 1467.58 1486.53C1464.78 1486.53 1462.46 1485.72 1460.61 1484.1C1458.79 1482.48 1457.87 1480.45 1457.87 1477.98C1457.87 1474.96 1458.99 1472.64 1461.22 1471.02C1463.47 1469.41 1466.71 1468.59 1470.95 1468.57H1474.46V1466.94C1474.46 1465.62 1474.11 1464.56 1473.43 1463.77C1472.76 1462.98 1471.7 1462.59 1470.24 1462.59C1468.96 1462.59 1467.95 1462.89 1467.21 1463.51C1466.49 1464.12 1466.13 1464.97 1466.13 1466.04H1458.51C1458.51 1464.39 1459.02 1462.86 1460.03 1461.45C1461.05 1460.05 1462.5 1458.95 1464.36 1458.16C1466.22 1457.35 1468.31 1456.94 1470.63 1456.94C1474.15 1456.94 1476.94 1457.83 1478.99 1459.61C1481.07 1461.36 1482.1 1463.84 1482.1 1467.04V1479.41C1482.12 1482.12 1482.5 1484.16 1483.24 1485.55V1486H1475.54ZM1469.24 1480.7C1470.36 1480.7 1471.4 1480.45 1472.35 1479.96C1473.3 1479.45 1474 1478.78 1474.46 1477.93V1473.03H1471.61C1467.8 1473.03 1465.77 1474.35 1465.52 1476.98L1465.49 1477.43C1465.49 1478.38 1465.83 1479.16 1466.49 1479.78C1467.16 1480.39 1468.08 1480.7 1469.24 1480.7ZM1496.54 1486H1488.89V1445.5H1496.54V1486ZM1513.74 1474.56L1511 1477.3V1486H1503.38V1445.5H1511V1467.94L1512.48 1466.04L1519.78 1457.47H1528.93L1518.62 1469.36L1529.83 1486H1521.07L1513.74 1474.56Z" fill="white"/>
<rect width="385" height="87" transform="translate(1474 1556)" fill="#595959" fill-opacity="0.7"/>
<path d="M1503.76 1579.61L1513.62 1607.45L1523.43 1579.61H1533.82V1618H1525.89V1607.51L1526.68 1589.39L1516.31 1618H1510.88L1500.55 1589.42L1501.34 1607.51V1618H1493.43V1579.61H1503.76ZM1548.81 1618H1541.17V1589.47H1548.81V1618ZM1540.72 1582.09C1540.72 1580.95 1541.09 1580 1541.85 1579.27C1542.62 1578.53 1543.67 1578.16 1544.99 1578.16C1546.29 1578.16 1547.33 1578.53 1548.1 1579.27C1548.87 1580 1549.26 1580.95 1549.26 1582.09C1549.26 1583.25 1548.86 1584.2 1548.07 1584.94C1547.3 1585.67 1546.27 1586.04 1544.99 1586.04C1543.71 1586.04 1542.67 1585.67 1541.88 1584.94C1541.1 1584.2 1540.72 1583.25 1540.72 1582.09ZM1554.47 1603.52C1554.47 1599.08 1555.46 1595.54 1557.45 1592.9C1559.45 1590.26 1562.18 1588.94 1565.65 1588.94C1568.42 1588.94 1570.72 1589.98 1572.53 1592.05V1577.5H1580.17V1618H1573.29L1572.92 1614.97C1571.03 1617.34 1568.58 1618.53 1565.59 1618.53C1562.24 1618.53 1559.54 1617.21 1557.5 1614.57C1555.48 1611.92 1554.47 1608.24 1554.47 1603.52ZM1562.09 1604.08C1562.09 1606.75 1562.55 1608.8 1563.48 1610.22C1564.42 1611.65 1565.77 1612.36 1567.54 1612.36C1569.9 1612.36 1571.56 1611.36 1572.53 1609.38V1598.12C1571.58 1596.13 1569.94 1595.14 1567.6 1595.14C1563.92 1595.14 1562.09 1598.12 1562.09 1604.08ZM1631.25 1605.21C1630.95 1609.34 1629.42 1612.59 1626.66 1614.97C1623.92 1617.34 1620.3 1618.53 1615.8 1618.53C1610.87 1618.53 1607 1616.88 1604.17 1613.57C1601.36 1610.25 1599.95 1605.7 1599.95 1599.91V1597.57C1599.95 1593.87 1600.6 1590.62 1601.9 1587.81C1603.2 1585 1605.06 1582.84 1607.46 1581.35C1609.89 1579.84 1612.7 1579.08 1615.9 1579.08C1620.33 1579.08 1623.9 1580.27 1626.61 1582.64C1629.31 1585.01 1630.88 1588.35 1631.3 1592.63H1623.39C1623.2 1590.16 1622.5 1588.36 1621.31 1587.26C1620.13 1586.13 1618.33 1585.57 1615.9 1585.57C1613.26 1585.57 1611.29 1586.52 1609.97 1588.42C1608.67 1590.3 1608 1593.22 1607.96 1597.2V1600.1C1607.96 1604.25 1608.59 1607.28 1609.84 1609.19C1611.1 1611.11 1613.09 1612.07 1615.8 1612.07C1618.24 1612.07 1620.06 1611.51 1621.25 1610.41C1622.47 1609.28 1623.16 1607.55 1623.34 1605.21H1631.25ZM1635.29 1603.47C1635.29 1600.64 1635.84 1598.12 1636.93 1595.9C1638.02 1593.69 1639.58 1591.98 1641.62 1590.76C1643.68 1589.55 1646.06 1588.94 1648.77 1588.94C1652.62 1588.94 1655.75 1590.12 1658.18 1592.48C1660.62 1594.83 1661.99 1598.03 1662.27 1602.07L1662.32 1604.03C1662.32 1608.4 1661.1 1611.92 1658.66 1614.57C1656.21 1617.21 1652.93 1618.53 1648.82 1618.53C1644.71 1618.53 1641.42 1617.21 1638.96 1614.57C1636.52 1611.94 1635.29 1608.35 1635.29 1603.81V1603.47ZM1642.91 1604.03C1642.91 1606.73 1643.42 1608.81 1644.44 1610.25C1645.46 1611.67 1646.92 1612.38 1648.82 1612.38C1650.67 1612.38 1652.11 1611.68 1653.14 1610.27C1654.18 1608.85 1654.7 1606.58 1654.7 1603.47C1654.7 1600.82 1654.18 1598.76 1653.14 1597.3C1652.11 1595.84 1650.65 1595.11 1648.77 1595.11C1646.9 1595.11 1645.46 1595.84 1644.44 1597.3C1643.42 1598.74 1642.91 1600.98 1642.91 1604.03ZM1684.64 1615.1C1682.76 1617.38 1680.16 1618.53 1676.83 1618.53C1673.78 1618.53 1671.44 1617.65 1669.82 1615.89C1668.22 1614.13 1667.4 1611.56 1667.37 1608.17V1589.47H1674.99V1607.9C1674.99 1610.87 1676.34 1612.36 1679.05 1612.36C1681.63 1612.36 1683.41 1611.46 1684.38 1609.67V1589.47H1692.02V1618H1684.85L1684.64 1615.1ZM1714.34 1596.62C1713.3 1596.48 1712.39 1596.41 1711.6 1596.41C1708.72 1596.41 1706.83 1597.38 1705.93 1599.33V1618H1698.31V1589.47H1705.51L1705.72 1592.87C1707.25 1590.25 1709.37 1588.94 1712.07 1588.94C1712.92 1588.94 1713.71 1589.06 1714.45 1589.29L1714.34 1596.62ZM1729.01 1582.46V1589.47H1733.89V1595.06H1729.01V1609.3C1729.01 1610.35 1729.22 1611.11 1729.62 1611.57C1730.03 1612.02 1730.8 1612.25 1731.94 1612.25C1732.78 1612.25 1733.53 1612.19 1734.18 1612.07V1617.84C1732.69 1618.3 1731.15 1618.53 1729.57 1618.53C1724.22 1618.53 1721.5 1615.83 1721.39 1610.43V1595.06H1717.23V1589.47H1721.39V1582.46H1729.01ZM1749.33 1607.22L1754.6 1589.47H1762.78L1751.31 1622.43L1750.67 1623.93C1748.97 1627.66 1746.16 1629.52 1742.24 1629.52C1741.13 1629.52 1740 1629.36 1738.86 1629.02V1623.25L1740.02 1623.27C1741.46 1623.27 1742.54 1623.05 1743.24 1622.61C1743.96 1622.17 1744.52 1621.45 1744.93 1620.43L1745.82 1618.08L1735.83 1589.47H1744.03L1749.33 1607.22ZM1782.43 1618C1782.08 1617.31 1781.83 1616.46 1781.67 1615.44C1779.82 1617.5 1777.42 1618.53 1774.47 1618.53C1771.68 1618.53 1769.36 1617.72 1767.51 1616.1C1765.68 1614.48 1764.77 1612.45 1764.77 1609.98C1764.77 1606.96 1765.88 1604.64 1768.12 1603.02C1770.37 1601.41 1773.61 1600.59 1777.85 1600.57H1781.35V1598.94C1781.35 1597.62 1781.01 1596.56 1780.32 1595.77C1779.66 1594.98 1778.59 1594.59 1777.13 1594.59C1775.85 1594.59 1774.84 1594.89 1774.1 1595.51C1773.38 1596.12 1773.02 1596.97 1773.02 1598.04H1765.4C1765.4 1596.39 1765.91 1594.86 1766.93 1593.45C1767.95 1592.05 1769.39 1590.95 1771.25 1590.16C1773.12 1589.35 1775.21 1588.94 1777.53 1588.94C1781.04 1588.94 1783.83 1589.83 1785.89 1591.61C1787.96 1593.36 1789 1595.84 1789 1599.04V1611.41C1789.02 1614.12 1789.39 1616.16 1790.13 1617.55V1618H1782.43ZM1776.13 1612.7C1777.26 1612.7 1778.29 1612.45 1779.24 1611.96C1780.19 1611.45 1780.9 1610.78 1781.35 1609.93V1605.03H1778.5C1774.69 1605.03 1772.66 1606.35 1772.41 1608.98L1772.39 1609.43C1772.39 1610.38 1772.72 1611.16 1773.39 1611.78C1774.06 1612.39 1774.97 1612.7 1776.13 1612.7ZM1811.42 1596.62C1810.39 1596.48 1809.47 1596.41 1808.68 1596.41C1805.8 1596.41 1803.91 1597.38 1803.01 1599.33V1618H1795.39V1589.47H1802.59L1802.8 1592.87C1804.33 1590.25 1806.45 1588.94 1809.16 1588.94C1810 1588.94 1810.79 1589.06 1811.53 1589.29L1811.42 1596.62ZM1813.94 1603.52C1813.94 1599.08 1814.93 1595.54 1816.92 1592.9C1818.92 1590.26 1821.66 1588.94 1825.12 1588.94C1827.9 1588.94 1830.19 1589.98 1832 1592.05V1577.5H1839.65V1618H1832.77L1832.4 1614.97C1830.5 1617.34 1828.06 1618.53 1825.07 1618.53C1821.71 1618.53 1819.01 1617.21 1816.97 1614.57C1814.95 1611.92 1813.94 1608.24 1813.94 1603.52ZM1821.56 1604.08C1821.56 1606.75 1822.03 1608.8 1822.96 1610.22C1823.89 1611.65 1825.24 1612.36 1827.02 1612.36C1829.37 1612.36 1831.04 1611.36 1832 1609.38V1598.12C1831.05 1596.13 1829.41 1595.14 1827.07 1595.14C1823.4 1595.14 1821.56 1598.12 1821.56 1604.08Z" fill="white"/>
<rect width="275" height="87" transform="translate(1331 2101)" fill="#595959" fill-opacity="0.7"/>
<path d="M1360.76 2124.61L1370.62 2152.45L1380.43 2124.61H1390.82V2163H1382.89V2152.51L1383.68 2134.39L1373.31 2163H1367.88L1357.55 2134.42L1358.34 2152.51V2163H1350.43V2124.61H1360.76ZM1405.81 2163H1398.17V2134.47H1405.81V2163ZM1397.72 2127.09C1397.72 2125.95 1398.09 2125 1398.85 2124.27C1399.62 2123.53 1400.67 2123.16 1401.99 2123.16C1403.29 2123.16 1404.33 2123.53 1405.1 2124.27C1405.87 2125 1406.26 2125.95 1406.26 2127.09C1406.26 2128.25 1405.86 2129.2 1405.07 2129.94C1404.3 2130.67 1403.27 2131.04 1401.99 2131.04C1400.71 2131.04 1399.67 2130.67 1398.88 2129.94C1398.1 2129.2 1397.72 2128.25 1397.72 2127.09ZM1411.47 2148.52C1411.47 2144.08 1412.46 2140.54 1414.45 2137.9C1416.45 2135.26 1419.18 2133.94 1422.65 2133.94C1425.42 2133.94 1427.72 2134.98 1429.53 2137.05V2122.5H1437.17V2163H1430.29L1429.92 2159.97C1428.03 2162.34 1425.58 2163.53 1422.59 2163.53C1419.24 2163.53 1416.54 2162.21 1414.5 2159.57C1412.48 2156.92 1411.47 2153.24 1411.47 2148.52ZM1419.09 2149.08C1419.09 2151.75 1419.55 2153.8 1420.48 2155.22C1421.42 2156.65 1422.77 2157.36 1424.54 2157.36C1426.9 2157.36 1428.56 2156.36 1429.53 2154.38V2143.12C1428.58 2141.13 1426.94 2140.14 1424.6 2140.14C1420.92 2140.14 1419.09 2143.12 1419.09 2149.08ZM1466.02 2149.47V2163H1458.11V2124.61H1473.09C1475.97 2124.61 1478.5 2125.14 1480.68 2126.19C1482.88 2127.25 1484.56 2128.75 1485.74 2130.7C1486.92 2132.63 1487.51 2134.84 1487.51 2137.32C1487.51 2141.08 1486.22 2144.05 1483.63 2146.23C1481.07 2148.39 1477.51 2149.47 1472.95 2149.47H1466.02ZM1466.02 2143.07H1473.09C1475.18 2143.07 1476.77 2142.57 1477.86 2141.59C1478.97 2140.61 1479.52 2139.2 1479.52 2137.37C1479.52 2135.49 1478.97 2133.97 1477.86 2132.81C1476.75 2131.65 1475.22 2131.05 1473.27 2131.02H1466.02V2143.07ZM1501.05 2163H1493.4V2134.47H1501.05V2163ZM1492.95 2127.09C1492.95 2125.95 1493.33 2125 1494.09 2124.27C1494.86 2123.53 1495.91 2123.16 1497.22 2123.16C1498.53 2123.16 1499.56 2123.53 1500.34 2124.27C1501.11 2125 1501.5 2125.95 1501.5 2127.09C1501.5 2128.25 1501.1 2129.2 1500.31 2129.94C1499.54 2130.67 1498.51 2131.04 1497.22 2131.04C1495.94 2131.04 1494.9 2130.67 1494.11 2129.94C1493.34 2129.2 1492.95 2128.25 1492.95 2127.09ZM1516.64 2156.86H1530.59V2163H1506.91V2158.36L1520.33 2140.64H1507.31V2134.47H1530.17V2138.98L1516.64 2156.86ZM1544.66 2156.86H1558.61V2163H1534.93V2158.36L1548.35 2140.64H1535.32V2134.47H1558.18V2138.98L1544.66 2156.86ZM1580.45 2163C1580.1 2162.31 1579.84 2161.46 1579.69 2160.44C1577.84 2162.5 1575.44 2163.53 1572.49 2163.53C1569.69 2163.53 1567.37 2162.72 1565.53 2161.1C1563.7 2159.48 1562.78 2157.45 1562.78 2154.98C1562.78 2151.96 1563.9 2149.64 1566.13 2148.02C1568.38 2146.41 1571.63 2145.59 1575.86 2145.57H1579.37V2143.94C1579.37 2142.62 1579.03 2141.56 1578.34 2140.77C1577.67 2139.98 1576.61 2139.59 1575.15 2139.59C1573.87 2139.59 1572.86 2139.89 1572.12 2140.51C1571.4 2141.12 1571.04 2141.97 1571.04 2143.04H1563.42C1563.42 2141.39 1563.93 2139.86 1564.95 2138.45C1565.97 2137.05 1567.41 2135.95 1569.27 2135.16C1571.13 2134.35 1573.23 2133.94 1575.55 2133.94C1579.06 2133.94 1581.85 2134.83 1583.9 2136.61C1585.98 2138.36 1587.02 2140.84 1587.02 2144.04V2156.41C1587.03 2159.12 1587.41 2161.16 1588.15 2162.55V2163H1580.45ZM1574.15 2157.7C1575.27 2157.7 1576.31 2157.45 1577.26 2156.96C1578.21 2156.45 1578.91 2155.78 1579.37 2154.93V2150.03H1576.52C1572.71 2150.03 1570.68 2151.35 1570.43 2153.98L1570.4 2154.43C1570.4 2155.38 1570.74 2156.16 1571.41 2156.78C1572.07 2157.39 1572.99 2157.7 1574.15 2157.7Z" fill="white"/>
<rect width="315" height="87" transform="translate(1641 2133)" fill="#595959" fill-opacity="0.7"/>
<path d="M1670.76 2156.61L1680.62 2184.45L1690.43 2156.61H1700.82V2195H1692.89V2184.51L1693.68 2166.39L1683.31 2195H1677.88L1667.55 2166.42L1668.34 2184.51V2195H1660.43V2156.61H1670.76ZM1715.81 2195H1708.17V2166.47H1715.81V2195ZM1707.72 2159.09C1707.72 2157.95 1708.09 2157 1708.85 2156.27C1709.62 2155.53 1710.67 2155.16 1711.99 2155.16C1713.29 2155.16 1714.33 2155.53 1715.1 2156.27C1715.87 2157 1716.26 2157.95 1716.26 2159.09C1716.26 2160.25 1715.86 2161.2 1715.07 2161.94C1714.3 2162.67 1713.27 2163.04 1711.99 2163.04C1710.71 2163.04 1709.67 2162.67 1708.88 2161.94C1708.1 2161.2 1707.72 2160.25 1707.72 2159.09ZM1721.47 2180.52C1721.47 2176.08 1722.46 2172.54 1724.45 2169.9C1726.45 2167.26 1729.18 2165.94 1732.65 2165.94C1735.42 2165.94 1737.72 2166.98 1739.53 2169.05V2154.5H1747.17V2195H1740.29L1739.92 2191.97C1738.03 2194.34 1735.58 2195.53 1732.59 2195.53C1729.24 2195.53 1726.54 2194.21 1724.5 2191.57C1722.48 2188.92 1721.47 2185.24 1721.47 2180.52ZM1729.09 2181.08C1729.09 2183.75 1729.55 2185.8 1730.48 2187.22C1731.42 2188.65 1732.77 2189.36 1734.54 2189.36C1736.9 2189.36 1738.56 2188.36 1739.53 2186.38V2175.12C1738.58 2173.13 1736.94 2172.14 1734.6 2172.14C1730.92 2172.14 1729.09 2175.12 1729.09 2181.08ZM1778.45 2156.61L1788.31 2184.45L1798.12 2156.61H1808.5V2195H1800.57V2184.51L1801.36 2166.39L1791 2195H1785.56L1775.23 2166.42L1776.02 2184.51V2195H1768.11V2156.61H1778.45ZM1831.98 2195C1831.63 2194.31 1831.38 2193.46 1831.22 2192.44C1829.37 2194.5 1826.97 2195.53 1824.02 2195.53C1821.23 2195.53 1818.91 2194.72 1817.06 2193.1C1815.23 2191.48 1814.32 2189.45 1814.32 2186.98C1814.32 2183.96 1815.43 2181.64 1817.67 2180.02C1819.92 2178.41 1823.16 2177.59 1827.4 2177.57H1830.9V2175.94C1830.9 2174.62 1830.56 2173.56 1829.87 2172.77C1829.21 2171.98 1828.14 2171.59 1826.68 2171.59C1825.4 2171.59 1824.39 2171.89 1823.65 2172.51C1822.93 2173.12 1822.57 2173.97 1822.57 2175.04H1814.95C1814.95 2173.39 1815.46 2171.86 1816.48 2170.45C1817.5 2169.05 1818.94 2167.95 1820.8 2167.16C1822.67 2166.35 1824.76 2165.94 1827.08 2165.94C1830.59 2165.94 1833.38 2166.83 1835.44 2168.61C1837.51 2170.36 1838.55 2172.84 1838.55 2176.04V2188.41C1838.57 2191.12 1838.94 2193.16 1839.68 2194.55V2195H1831.98ZM1825.68 2189.7C1826.81 2189.7 1827.84 2189.45 1828.79 2188.96C1829.74 2188.45 1830.45 2187.78 1830.9 2186.93V2182.03H1828.05C1824.24 2182.03 1822.21 2183.35 1821.96 2185.98L1821.94 2186.43C1821.94 2187.38 1822.27 2188.16 1822.94 2188.78C1823.61 2189.39 1824.52 2189.7 1825.68 2189.7ZM1860.97 2173.62C1859.94 2173.48 1859.02 2173.41 1858.23 2173.41C1855.35 2173.41 1853.46 2174.38 1852.56 2176.33V2195H1844.94V2166.47H1852.14L1852.35 2169.87C1853.88 2167.25 1856 2165.94 1858.71 2165.94C1859.55 2165.94 1860.34 2166.06 1861.08 2166.29L1860.97 2173.62ZM1875.57 2183.56L1872.82 2186.3V2195H1865.2V2154.5H1872.82V2176.94L1874.3 2175.04L1881.61 2166.47H1890.75L1880.45 2178.36L1891.65 2195H1882.9L1875.57 2183.56ZM1907.19 2195.53C1903.01 2195.53 1899.6 2194.24 1896.96 2191.68C1894.34 2189.11 1893.03 2185.69 1893.03 2181.42V2180.68C1893.03 2177.82 1893.59 2175.26 1894.7 2173.01C1895.8 2170.74 1897.37 2169 1899.39 2167.79C1901.43 2166.56 1903.75 2165.94 1906.35 2165.94C1910.25 2165.94 1913.32 2167.17 1915.55 2169.63C1917.8 2172.1 1918.93 2175.58 1918.93 2180.1V2183.21H1900.76C1901.01 2185.08 1901.74 2186.57 1902.98 2187.7C1904.22 2188.82 1905.8 2189.38 1907.7 2189.38C1910.63 2189.38 1912.92 2188.32 1914.58 2186.19L1918.32 2190.39C1917.18 2192 1915.63 2193.27 1913.68 2194.18C1911.73 2195.08 1909.57 2195.53 1907.19 2195.53ZM1906.32 2172.11C1904.81 2172.11 1903.58 2172.62 1902.63 2173.64C1901.7 2174.66 1901.1 2176.12 1900.84 2178.02H1911.44V2177.41C1911.4 2175.73 1910.95 2174.42 1910.07 2173.51C1909.19 2172.58 1907.94 2172.11 1906.32 2172.11ZM1932.94 2159.46V2166.47H1937.82V2172.06H1932.94V2186.3C1932.94 2187.35 1933.14 2188.11 1933.55 2188.57C1933.95 2189.02 1934.73 2189.25 1935.87 2189.25C1936.71 2189.25 1937.46 2189.19 1938.11 2189.07V2194.84C1936.61 2195.3 1935.08 2195.53 1933.49 2195.53C1928.15 2195.53 1925.43 2192.83 1925.32 2187.43V2172.06H1921.15V2166.47H1925.32V2159.46H1932.94Z" fill="white"/>
</svg>
