<svg width="148" height="148" viewBox="0 0 148 148" fill="none" xmlns="http://www.w3.org/2000/svg">
<circle cx="74" cy="74" r="74" fill="#FF5353"/>
<path d="M74 22L93 62C79.5 61 80.5 69 74 98C67.5 69 68.5 61 55 62L74 22Z" fill="white"/>
<rect x="20" y="107" width="108" height="14" fill="white"/>
<path d="M123.649 102C128.949 93.2469 132 82.9798 132 72C132 39.9675 106.033 14 74 14C41.9675 14 16 39.9675 16 72C16 82.9798 19.0509 93.2469 24.3513 102H19.7283C14.8038 93.1102 12 82.8825 12 72C12 37.7583 39.7583 10 74 10C108.242 10 136 37.7583 136 72C136 82.8825 133.196 93.1102 128.272 102H123.649Z" fill="white"/>
<path d="M113.501 101C119.472 92.8802 123 82.8522 123 72.0002C123 48.3535 106.25 28.619 83.9671 24.0146L88 34.5002H87.9506C103.163 40.1618 114 54.8155 114 72.0002C114 83.4146 109.219 93.7123 101.55 101H113.501Z" fill="white"/>
<path d="M34.499 101C28.5277 92.8802 25 82.8522 25 72.0002C25 48.0407 42.1964 28.0975 64.9202 23.8398L60 34.5002H60.0494C44.8368 40.1618 34 54.8155 34 72.0002C34 83.4146 38.781 93.7123 46.4497 101H34.499Z" fill="white"/>
</svg>
